<?xml version="1.0" encoding="UTF-8"?>
<svg id="KODA_100_CMYK" xmlns="http://www.w3.org/2000/svg" viewBox="0 0 187.08 296.98">
  <defs>
    <style>
      .cls-1 {
        fill: #00aeef;
      }

      .cls-2 {
        fill: #303333;
      }
    </style>
  </defs>
  <g>
    <g>
      <path class="cls-2" d="M75.38,163.83h-7.42c-.16,0-.23-.07-.23-.23v-13.77c0-.16.07-.23.23-.23h7.42c.16,0,.23.07.23.23v.84c0,.16-.07.23-.23.23h-5.9c-.16,0-.23.07-.23.23v4.61c0,.16.07.23.23.23h4.84c.16,0,.23.07.23.23v.84c0,.16-.07.23-.23.23h-4.84c-.16,0-.23.07-.23.23v4.84c0,.16.07.23.23.23h5.9c.16,0,.23.07.23.23v.84c0,.16-.07.23-.23.23"/>
      <path class="cls-2" d="M88.47,163.83h-7.42c-.16,0-.23-.07-.23-.23v-13.77c0-.16.07-.23.23-.23h7.42c.16,0,.23.07.23.23v.84c0,.16-.07.23-.23.23h-5.9c-.16,0-.23.07-.23.23v4.61c0,.16.07.23.23.23h4.84c.16,0,.23.07.23.23v.84c0,.16-.07.23-.23.23h-4.84c-.16,0-.23.07-.23.23v4.84c0,.16.07.23.23.23h5.9c.16,0,.23.07.23.23v.84c0,.16-.07.23-.23.23"/>
      <path class="cls-2" d="M97.55,164.06h-.97c-1.51,0-2.44-.5-3.05-1.22-.2-.25-.45-.63-.45-.75,0-.07.04-.14.14-.18l.86-.45.2-.07.18.11c.54.81,1.36,1.27,2.13,1.27h.97c1.36,0,2.44-1.06,2.44-2.42,0-1.6-1.45-2.31-3.05-3.03-1.74-.79-3.69-1.65-3.69-4.25,0-2.19,1.54-3.71,3.93-3.71h.36c1.51,0,2.42.5,3.03,1.2.25.29.5.66.5.75s-.07.16-.16.2l-.77.39c-.09.04-.23.11-.29.11l-.16-.09c-.54-.81-1.38-1.24-2.15-1.24h-.36c-1.33,0-2.4,1.04-2.4,2.4,0,1.42,1.51,2.1,3.21,2.87,1.67.77,3.5,1.76,3.5,4.41,0,2.19-1.54,3.71-3.96,3.71"/>
      <path class="cls-2" d="M112.97,150.9h-2.74c-.16,0-.23.07-.23.23v12.48c0,.16-.07.23-.23.23h-1.06c-.16,0-.23-.07-.23-.23v-12.48c0-.16-.07-.23-.23-.23h-2.74c-.16,0-.23-.07-.23-.23v-.84c0-.16.07-.23.23-.23h7.44c.16,0,.23.07.23.23v.84c0,.16-.07.23-.23.23"/>
      <path class="cls-2" d="M119.12,163.83h-1.06c-.16,0-.23-.07-.23-.23v-13.77c0-.16.07-.23.23-.23h1.06c.16,0,.23.07.23.23v13.77c0,.16-.07.23-.23.23"/>
    </g>
    <g>
      <path class="cls-2" d="M39.89,182.08h-1.36l-.2-.11-4.14-6.76c-.07-.09-.13-.16-.2-.16l-.18.11-1.76,2.22v4.48c0,.16-.07.23-.23.23h-1.06c-.16,0-.23-.07-.23-.23v-13.77c0-.16.07-.23.23-.23h1.06c.16,0,.23.07.23.23v6.78c0,.16.09.27.2.27.07,0,.14-.04.2-.14l5.38-7.05.18-.09h1.2c.16,0,.25.07.25.18l-.07.18-4.18,5.16-.11.2c0,.09.07.18.11.25l4.75,7.69c.09.16.18.29.18.39,0,.11-.09.18-.25.18"/>
      <path class="cls-2" d="M48.21,171.28c-.02-.11-.2-.7-.25-.88h-.09c-.04.18-.2.75-.25.88l-1.63,5.9c0,.11.09.2.25.2h3.26c.16,0,.25-.09.25-.2l-1.54-5.9ZM52.51,182.08h-1.15c-.11,0-.2-.04-.23-.16l-.88-3.12c-.02-.11-.11-.14-.23-.14h-4.25c-.11,0-.2.02-.23.14l-.88,3.12c-.02.11-.11.16-.23.16h-1.15c-.16,0-.25-.07-.25-.18s.09-.36.16-.57l4.05-13.32c.02-.11.11-.16.23-.16h.86c.11,0,.2.04.23.16l4,13.18c.11.34.2.61.2.7,0,.11-.09.18-.25.18"/>
      <path class="cls-2" d="M61.35,182.31h-.7c-2.4,0-3.93-1.51-3.93-3.71v-10.51c0-.16.07-.23.23-.23h1.08c.16,0,.23.07.23.23v10.51c0,1.31,1.04,2.42,2.4,2.42h.7c1.31,0,2.42-1.11,2.42-2.42v-10.51c0-.16.07-.23.23-.23h1.09c.16,0,.23.07.23.23v10.51c0,2.19-1.56,3.71-3.96,3.71"/>
      <path class="cls-2" d="M77.92,177.9c0-1.31-1.09-2.4-2.44-2.4h-2.87c-.16,0-.23.07-.23.23v4.84c0,.16.07.23.23.23h2.87c1.36,0,2.44-1.06,2.44-2.42v-.48ZM77.92,171.55c0-1.31-1.09-2.4-2.44-2.4h-2.87c-.16,0-.23.07-.23.23v4.61c0,.16.07.23.23.23h2.87c1.36,0,2.44-1.09,2.44-2.44v-.23ZM75.48,182.08h-4.39c-.16,0-.23-.07-.23-.23v-13.77c0-.16.07-.23.23-.23h4.39c2.4,0,3.96,1.51,3.96,3.91v.25c0,.86-.7,2.15-1.67,2.62-.11.07-.18.14-.18.23,0,.07.04.13.14.18.84.41,1.72,1.47,1.72,2.78v.34c0,2.4-1.56,3.91-3.96,3.91"/>
      <path class="cls-2" d="M88.43,171.28c-.02-.11-.2-.7-.25-.88h-.09c-.04.18-.2.75-.25.88l-1.63,5.9c0,.11.09.2.25.2h3.26c.16,0,.25-.09.25-.2l-1.54-5.9ZM92.73,182.08h-1.15c-.11,0-.2-.04-.23-.16l-.88-3.12c-.02-.11-.11-.14-.23-.14h-4.25c-.11,0-.2.02-.23.14l-.88,3.12c-.02.11-.11.16-.23.16h-1.15c-.16,0-.25-.07-.25-.18s.09-.36.16-.57l4.05-13.32c.02-.11.11-.16.23-.16h.86c.11,0,.2.04.23.16l4,13.18c.11.34.2.61.2.7,0,.11-.09.18-.25.18"/>
      <path class="cls-2" d="M106,182.08h-1.06l-.2-.11-5.49-9.95c-.09-.16-.34-.63-.41-.81l-.09.02c.04.54.07,3.46.07,5.25v5.38c0,.16-.07.23-.23.23h-1.06c-.16,0-.23-.07-.23-.23v-13.77c0-.16.07-.23.23-.23h1.04c.09,0,.16.04.2.11l5.49,10.06c.07.11.34.63.41.81l.09-.02c-.05-.54-.07-3.46-.07-5.25v-5.49c0-.16.07-.23.23-.23h1.09c.16,0,.23.07.23.23v13.77c0,.16-.07.23-.23.23"/>
      <path class="cls-2" d="M119.2,171.55c0-1.31-1.09-2.4-2.44-2.4h-2.87c-.16,0-.23.07-.23.23v11.19c0,.16.07.23.23.23h2.87c1.36,0,2.44-1.06,2.44-2.42v-6.83ZM116.76,182.08h-4.39c-.16,0-.23-.07-.23-.23v-13.77c0-.16.07-.23.23-.23h4.39c2.4,0,3.96,1.51,3.96,3.91v6.35c0,2.42-1.56,3.96-3.96,3.96"/>
      <path class="cls-2" d="M130.57,182.31h-.7c-2.4,0-3.93-1.51-3.93-3.71v-10.51c0-.16.07-.23.23-.23h1.08c.16,0,.23.07.23.23v10.51c0,1.31,1.04,2.42,2.4,2.42h.7c1.31,0,2.42-1.11,2.42-2.42v-10.51c0-.16.07-.23.23-.23h1.09c.16,0,.23.07.23.23v10.51c0,2.19-1.56,3.71-3.96,3.71"/>
      <path class="cls-2" d="M143.73,182.31h-.97c-1.51,0-2.44-.5-3.05-1.22-.2-.25-.45-.63-.45-.75,0-.07.04-.14.14-.18l.86-.45.2-.07.18.11c.54.81,1.36,1.27,2.13,1.27h.97c1.36,0,2.44-1.06,2.44-2.42,0-1.6-1.45-2.31-3.05-3.03-1.74-.79-3.69-1.65-3.69-4.25,0-2.19,1.54-3.71,3.93-3.71h.36c1.51,0,2.42.5,3.03,1.2.25.29.5.66.5.75s-.07.16-.16.2l-.77.39c-.09.04-.23.11-.29.11l-.16-.09c-.54-.81-1.38-1.24-2.15-1.24h-.36c-1.33,0-2.4,1.04-2.4,2.4,0,1.42,1.51,2.1,3.21,2.87,1.67.77,3.5,1.76,3.5,4.41,0,2.19-1.54,3.71-3.96,3.71"/>
      <path class="cls-2" d="M155.5,177.86h-3.21c-.16,0-.23-.07-.23-.23v-1.09c0-.16.07-.23.23-.23h3.21c.16,0,.23.07.23.23v1.09c0,.16-.07.23-.23.23"/>
    </g>
    <g>
      <path class="cls-2" d="M30.86,187.41h-2.74c-.16,0-.23.07-.23.23v12.48c0,.16-.07.23-.23.23h-1.06c-.16,0-.23-.07-.23-.23v-12.48c0-.16-.07-.23-.23-.23h-2.74c-.16,0-.23-.07-.23-.23v-.84c0-.16.07-.23.23-.23h7.44c.16,0,.23.07.23.23v.84c0,.16-.07.23-.23.23"/>
      <path class="cls-2" d="M41.31,187.61c-.57,0-.88-.45-.88-.97,0-.48.38-.93.88-.93.54,0,.95.41.95.93s-.43.97-.95.97M37.89,187.61c-.56,0-.88-.45-.88-.97,0-.48.34-.93.88-.93s.95.41.95.93-.43.97-.95.97M42.42,192.56c0-1.36-1.11-2.4-2.42-2.4h-.7c-1.36,0-2.4,1.04-2.4,2.4v4.3c0,1.31,1.04,2.42,2.4,2.42h.7c1.31,0,2.42-1.11,2.42-2.42v-4.3ZM40,200.57h-.7c-2.4,0-3.93-1.51-3.93-3.71v-4.3c0-2.19,1.54-3.71,3.93-3.71h.7c2.4,0,3.96,1.51,3.96,3.71v4.3c0,2.19-1.56,3.71-3.96,3.71"/>
      <path class="cls-2" d="M55.1,187.61c-.57,0-.88-.45-.88-.97,0-.48.38-.93.88-.93.54,0,.95.41.95.93s-.43.97-.95.97M51.68,187.61c-.56,0-.88-.45-.88-.97,0-.48.34-.93.88-.93s.95.41.95.93-.43.97-.95.97M56.21,192.56c0-1.36-1.11-2.4-2.42-2.4h-.7c-1.36,0-2.4,1.04-2.4,2.4v4.3c0,1.31,1.04,2.42,2.4,2.42h.7c1.31,0,2.42-1.11,2.42-2.42v-4.3ZM53.79,200.57h-.7c-2.4,0-3.93-1.51-3.93-3.71v-4.3c0-2.19,1.54-3.71,3.93-3.71h.7c2.4,0,3.96,1.51,3.96,3.71v4.3c0,2.19-1.56,3.71-3.96,3.71"/>
      <path class="cls-2" d="M66.94,200.57h-.97c-1.51,0-2.44-.5-3.05-1.22-.2-.25-.45-.63-.45-.75,0-.07.04-.14.14-.18l.86-.45.2-.07.18.11c.54.81,1.36,1.27,2.13,1.27h.97c1.36,0,2.44-1.06,2.44-2.42,0-1.6-1.45-2.31-3.05-3.03-1.74-.79-3.69-1.65-3.69-4.25,0-2.19,1.54-3.71,3.93-3.71h.36c1.51,0,2.42.5,3.03,1.2.25.29.5.66.5.75s-.07.16-.16.2l-.77.39c-.09.04-.23.11-.29.11l-.16-.09c-.54-.81-1.38-1.24-2.15-1.24h-.36c-1.33,0-2.4,1.04-2.4,2.4,0,1.42,1.51,2.1,3.21,2.87,1.67.77,3.5,1.76,3.5,4.41,0,2.19-1.54,3.71-3.96,3.71"/>
      <path class="cls-2" d="M82.36,187.41h-2.74c-.16,0-.23.07-.23.23v12.48c0,.16-.07.23-.23.23h-1.06c-.16,0-.23-.07-.23-.23v-12.48c0-.16-.07-.23-.23-.23h-2.74c-.16,0-.23-.07-.23-.23v-.84c0-.16.07-.23.23-.23h7.44c.16,0,.23.07.23.23v.84c0,.16-.07.23-.23.23"/>
      <path class="cls-2" d="M91.5,200.57h-.7c-2.4,0-3.93-1.51-3.93-3.71v-10.51c0-.16.07-.23.23-.23h1.09c.16,0,.23.07.23.23v10.51c0,1.31,1.04,2.42,2.4,2.42h.7c1.31,0,2.42-1.11,2.42-2.42v-10.51c0-.16.07-.23.23-.23h1.08c.16,0,.23.07.23.23v10.51c0,2.19-1.56,3.71-3.96,3.71"/>
      <path class="cls-2" d="M104.65,200.57h-.97c-1.51,0-2.44-.5-3.05-1.22-.2-.25-.45-.63-.45-.75,0-.07.04-.14.14-.18l.86-.45.2-.07.18.11c.54.81,1.36,1.27,2.13,1.27h.97c1.36,0,2.44-1.06,2.44-2.42,0-1.6-1.45-2.31-3.05-3.03-1.74-.79-3.69-1.65-3.69-4.25,0-2.19,1.54-3.71,3.93-3.71h.36c1.51,0,2.42.5,3.03,1.2.25.29.5.66.5.75s-.07.16-.16.2l-.77.39c-.09.04-.23.11-.29.11l-.16-.09c-.54-.81-1.38-1.24-2.15-1.24h-.36c-1.33,0-2.4,1.04-2.4,2.4,0,1.42,1.51,2.1,3.21,2.87,1.67.77,3.5,1.76,3.5,4.41,0,2.19-1.54,3.71-3.96,3.71"/>
      <path class="cls-2" d="M123.08,200.34h-1.36l-.2-.11-4.14-6.76c-.07-.09-.14-.16-.2-.16l-.18.11-1.76,2.22v4.48c0,.16-.07.23-.23.23h-1.06c-.16,0-.23-.07-.23-.23v-13.77c0-.16.07-.23.23-.23h1.06c.16,0,.23.07.23.23v6.78c0,.16.09.27.2.27.07,0,.14-.04.2-.14l5.38-7.05.18-.09h1.2c.16,0,.25.07.25.18l-.07.18-4.18,5.16-.11.2c0,.09.07.18.11.25l4.75,7.69c.09.16.18.29.18.39,0,.11-.09.18-.25.18"/>
      <path class="cls-2" d="M134.56,189.58c0-1.36-1.11-2.4-2.42-2.4h-.7c-1.36,0-2.4,1.04-2.4,2.4v7.28c0,1.31,1.04,2.42,2.4,2.42h.7c1.31,0,2.42-1.11,2.42-2.42v-7.28ZM132.14,200.57h-.7c-2.4,0-3.93-1.51-3.93-3.71v-7.28c0-2.19,1.54-3.71,3.93-3.71h.7c2.4,0,3.96,1.51,3.96,3.71v7.28c0,2.19-1.56,3.71-3.96,3.71"/>
      <path class="cls-2" d="M148.71,189.8c0-1.31-1.09-2.4-2.44-2.4h-2.87c-.16,0-.23.07-.23.23v11.19c0,.16.07.23.23.23h2.87c1.36,0,2.44-1.06,2.44-2.42v-6.83ZM146.27,200.34h-4.39c-.16,0-.23-.07-.23-.23v-13.77c0-.16.07-.23.23-.23h4.39c2.4,0,3.96,1.51,3.96,3.91v6.35c0,2.42-1.56,3.96-3.96,3.96"/>
      <path class="cls-2" d="M159.34,189.53c-.02-.11-.2-.7-.25-.88h-.09c-.04.18-.2.75-.25.88l-1.63,5.9c0,.11.09.2.25.2h3.26c.16,0,.25-.09.25-.2l-1.54-5.9ZM163.64,200.34h-1.15c-.11,0-.2-.04-.23-.16l-.88-3.12c-.02-.11-.11-.14-.23-.14h-4.25c-.11,0-.2.02-.23.14l-.88,3.12c-.02.11-.11.16-.23.16h-1.15c-.16,0-.25-.07-.25-.18s.09-.36.16-.57l4.05-13.32c.02-.11.11-.16.23-.16h.86c.11,0,.2.04.23.16l4,13.18c.11.34.2.61.2.7,0,.11-.09.18-.25.18"/>
    </g>
    <g>
      <path class="cls-2" d="M128.41,107.85c-9.32,9.32-21.7,14.44-34.87,14.44s-25.56-5.13-34.87-14.44c-9.31-9.31-14.44-21.7-14.44-34.87s5.13-25.56,14.44-34.87c9.31-9.31,21.7-14.44,34.87-14.44s25.55,5.13,34.87,14.44c9.31,9.31,14.44,21.7,14.44,34.87s-5.13,25.56-14.44,34.87M129.58,36.94c-9.63-9.63-22.43-14.93-36.04-14.93s-26.41,5.3-36.04,14.93c-9.62,9.62-14.93,22.43-14.93,36.04s5.3,26.41,14.93,36.04c9.63,9.62,22.43,14.93,36.04,14.93s26.41-5.3,36.04-14.93c9.63-9.63,14.93-22.43,14.93-36.04s-5.3-26.41-14.93-36.04"/>
      <path class="cls-2" d="M117.49,106.98c-1.3-.02-2.35-.37-2.88-.99-.3-.27-.62-.81-.64-1.35,0-.35.11-.63.36-.88.19-.19.44-.26.72-.26.56,0,1.2.31,1.6.63.71.57.98,1.5.84,2.86M117.5,84.58c-.18.17-.34.36-.49.54l-1.15-1.36s-.05-.02-.07-.03c-.08-.07-.17-.13-.28-.14-.13-.01-.26.03-.37.12l-3.69,3.1c-.21.18-.52.16-.7-.05l-.13-.15c-.18-.21-.16-.52.05-.7l9.25-7.98c.1-.09.23-.13.36-.12.13,0,.26.07.34.17l.14.16c.08.1.13.23.12.36-.01.13-.07.26-.18.35l-3.2,2.94s-.03.07-.05.11c-.03.01-.06,0-.08.02-.22.18-.26.5-.08.72l1.02,1.28c-.28.21-.55.42-.82.69M116.07,79.28h.7l-1.12.97c.18-.3.32-.63.42-.97M108.62,78.01c0-1.83,1.49-3.32,3.32-3.32,1.39,0,2.57.86,3.07,2.06h-2.8c-.7,0-1.26.57-1.26,1.27s.57,1.27,1.26,1.27h2.8c-.5,1.2-1.68,2.05-3.06,2.05-1.83,0-3.32-1.49-3.32-3.32M117.61,78.01c0,.13-.11.24-.25.24h-5.16c-.13,0-.25-.11-.25-.24s.11-.25.25-.25h5.16c.14,0,.25.11.25.25M121.72,83.57c.77.01,1.47.31,2.02.88,1.53,1.58,1.29,2.94.44,4.5-.02.04,0,.09-.01.13l-4.37-4.96c.64-.35,1.28-.55,1.89-.55h.04ZM134.88,84.75c-.01-.17-.11-.33-.27-.41l-7.58-4.03c-.17-.09-.39-.08-.55.04-.16.12-.23.32-.19.52l1.98,8.66c.04.18.17.32.34.37.17.06.36.02.49-.11l1.7-1.52c.52,1.21,1.32,4.14-1.46,6.67l-4.66-5.28c.16-.02.31-.08.39-.24.87-1.61,1.48-3.55-.61-5.69-.74-.76-1.68-1.17-2.73-1.19-.83.03-1.7.3-2.56.78l-.8-.99,3-2.76c.31-.27.49-.64.52-1.04.03-.4-.1-.8-.37-1.1l-.13-.15c-.27-.31-.64-.49-1.04-.52-.42-.03-.8.1-1.1.37l-.69.59c-.13-.56-.61-.98-1.21-.98h-1.29c-.54-1.78-2.18-3.08-4.13-3.08-2.39,0-4.34,1.95-4.34,4.34s1.95,4.34,4.34,4.34c.59,0,1.15-.13,1.67-.35l-3.6,3.1c-.63.55-.7,1.51-.16,2.14l.13.15c.27.31.63.49,1.04.52.04,0,.08,0,.12,0,.36,0,.71-.13.98-.37l3.29-2.76.96,1.14c-.89,1.35-1.22,2.81-.92,4.17.4,1.77,1.79,3.16,3.92,3.89,3.61,1.25,4.15,2.15,4.53,3.89.05.24.26.4.5.4.04,0,.07,0,.11-.01.28-.06.45-.33.39-.61-.46-2.12-1.32-3.29-5.19-4.64-1.79-.62-2.94-1.74-3.26-3.16-.33-1.48.31-3.15,1.77-4.58.24-.24.48-.43.72-.62l9.98,11.31c.18.2.49.23.7.06,4.75-3.83,1.82-8.82,1.79-8.87-.08-.13-.21-.22-.36-.24-.15-.02-.3.02-.41.12l-1.56,1.39-1.54-6.73,5.89,3.14-1.15.86c-.22.17-.27.47-.11.7,2.39,3.44,2.04,6.56-1.17,10.45-.63.76-.73,1.55-.61,2.24-.67-.2-1.47-.17-2.28.36-4.25,2.79-7.27,2.8-10.43.04-.2-.18-.5-.17-.69.02l-1.08,1.06-2.48-6.23,6.57,2.29-1.45,1.47c-.1.11-.16.26-.14.4.01.15.09.29.21.37.04.03,4.48,3.07,8.84-.8.21-.18.23-.5.05-.71l-8.71-10.23c-.18-.22-.51-.24-.72-.06-.21.18-.24.51-.06.72l8.38,9.84c-2.82,2.22-5.54,1.28-6.66.71l1.56-1.58c.12-.12.17-.3.13-.47-.04-.17-.17-.31-.33-.37l-8.39-2.92c-.19-.07-.4-.02-.54.13-.14.14-.18.35-.1.54l3.18,7.98c.06.16.2.28.37.31.16.03.34-.01.46-.13l1.29-1.27c1.65,1.34,3.3,2.01,5.07,2.01.52,0,1.05-.07,1.59-.18-.33.84-.85,1.93-1.32,2.52-.93,1.16-2.65,1.79-4.19,1.97.14-1.62-.28-2.83-1.23-3.6-.85-.68-2.61-1.37-3.68-.29-.45.44-.67,1.01-.66,1.63.03.91.54,1.69.93,2.03.69.83,2.04,1.31,3.71,1.31h.06c2.39-.02,4.68-.96,5.85-2.4.73-.91,1.45-2.61,1.73-3.47,0,0,0-.02,0-.03,1.08-.38,2.22-.95,3.44-1.75,1.34-.88,2.44.34,2.57.48,0,0,.01,0,.01,0h0s0,0,0,0c.1.1.22.15.36.15,0,0,0,0,0,0,.02,0,.03-.02.05-.02.1,0,.2-.02.28-.09,0,0,0-.02.01-.03,0,0,0,0,0,0,0,0,0-.02.01-.03.08-.09.13-.19.14-.31,0-.06-.04-.12-.06-.18-.02-.05-.01-.12-.05-.16,0,0-.01-.01-.02-.02,0,0,0-.01,0-.01-.05-.05-1.24-1.34-.2-2.6,3.39-4.1,3.86-7.6,1.5-11.28l1.4-1.05c.14-.11.21-.27.2-.45"/>
      <path class="cls-2" d="M110.82,111.78c-.48.58-1.02,1-1.72,1.34-2.09.99-3.93.92-5.76-.24-.24-.15-.55-.08-.7.16-.15.24-.08.55.16.7,1.15.72,2.32,1.08,3.53,1.08,1.04,0,2.1-.26,3.21-.79.84-.4,1.5-.91,2.07-1.61.18-.22.15-.54-.07-.72-.22-.18-.54-.15-.72.07"/>
      <path class="cls-2" d="M111.94,110.13c-.37-.17-.69-.4-.94-.7-.37-.43-.66-1.24-.14-1.68.11-.09.22-.14.34-.14.03,0,.06,0,.09,0,.25.04.49.24.59.42.27.47.28,1.41.06,2.1M116.83,108.75c-.55.91-1.72,1.57-3,1.68-.31.03-.62.02-.92-.02.3-.96.24-2.17-.16-2.88-.21-.38-.7-.82-1.3-.92-.46-.08-.91.04-1.28.36-.95.82-.73,2.23.04,3.12.76.88,1.92,1.37,3.23,1.37.15,0,.31,0,.47-.02,1.61-.14,3.06-.97,3.78-2.17.14-.24.07-.56-.17-.7-.24-.14-.55-.07-.7.17"/>
      <path class="cls-2" d="M76.74,109.29c-.37.38-.86.66-1.45.82-.1-.72-.07-1.29.25-1.73.22-.3.52-.47.83-.48h.01c.18,0,.34.06.43.17.31.38.08,1.07-.06,1.22M77.6,107.43c-.28-.35-.72-.54-1.22-.54h-.04c-.62.01-1.21.34-1.62.89-.54.73-.55,1.61-.44,2.48-.05,0-.1,0-.14,0-1.31.06-2.57-.44-3.32-1.19-.41-.41-.79-1.07-1.07-1.87-.09-.26-.39-.4-.65-.31-.27.09-.41.38-.31.65.33.94.8,1.74,1.31,2.25.92.92,2.44,1.49,3.98,1.49.03,0,.05,0,.08,0,1.37-.02,2.55-.47,3.33-1.29.41-.43.82-1.69.12-2.56"/>
      <path class="cls-2" d="M83.51,112.73c-1.88,1.18-3.87,1.29-5.92.32-.62-.3-1.13-.74-1.43-1.24-.14-.24-.46-.32-.7-.18-.24.15-.32.46-.18.7.4.67,1.07,1.26,1.87,1.64,1.07.51,2.13.76,3.17.76,1.27,0,2.52-.38,3.73-1.14.24-.15.31-.46.16-.7-.15-.24-.46-.31-.7-.16"/>
      <path class="cls-2" d="M65.63,57.25v-2.76c0-.28-.23-.51-.51-.51s-.51.23-.51.51v2.76c0,.28.23.51.51.51s.51-.23.51-.51"/>
      <path class="cls-2" d="M65.82,62c-.28,0-.51.23-.51.51v2.37c0,.28.23.51.51.51s.51-.23.51-.51v-2.37c0-.28-.23-.51-.51-.51"/>
      <path class="cls-2" d="M69.13,64.88v-2.37c0-.28-.23-.51-.51-.51s-.51.23-.51.51v2.37c0,.28.23.51.51.51s.51-.23.51-.51"/>
      <path class="cls-2" d="M63.03,62c-.28,0-.51.23-.51.51v2.37c0,.28.23.51.51.51s.51-.23.51-.51v-2.37c0-.28-.23-.51-.51-.51"/>
      <path class="cls-2" d="M65.82,68.1c-.28,0-.51.23-.51.51v2.37c0,.28.23.51.51.51s.51-.23.51-.51v-2.37c0-.28-.23-.51-.51-.51"/>
      <path class="cls-2" d="M63.03,68.1c-.28,0-.51.23-.51.51v2.37c0,.28.23.51.51.51s.51-.23.51-.51v-2.37c0-.28-.23-.51-.51-.51"/>
      <path class="cls-2" d="M63.03,73.8c-.28,0-.51.23-.51.51v2.37c0,.28.23.51.51.51s.51-.23.51-.51v-2.37c0-.28-.23-.51-.51-.51"/>
      <path class="cls-2" d="M134.11,68.04c-.36-.09-.65-.31-.83-.62-.16-.29-.21-.62-.12-.93.08-.27-.08-.55-.35-.63-.02,0-.04.01-.06,0-.02,0-.02-.03-.04-.03-.27-.08-.55.08-.63.35-.33,1.18-1.61,1.88-2.85,1.56-.62-.16-1.13-.54-1.43-1.07-.29-.5-.36-1.08-.21-1.62.08-.27-.08-.55-.36-.63,0,0,0,0,0,0,0,0,0,0,0,0-.27-.08-.55.08-.63.35-.33,1.18-1.61,1.88-2.85,1.56-.62-.16-1.13-.54-1.43-1.07-.29-.5-.36-1.07-.21-1.62.08-.27-.08-.55-.36-.63,0,0,0,0,0,0,0,0,0,0,0,0-.27-.08-.55.08-.63.35-.19.66-1.04,1.08-1.77.9-.27-.07-.65-.25-.9-.69-.31-.54-.35-1.37-.13-2.39l18.75,4.77c-.69,2.03-2.14,2.28-2.93,2.08M122.01,70.41l1.2-3.18c.09.03.17.07.26.1.29.07.58.11.86.11.78,0,1.52-.28,2.11-.75l.06,6.26-4.49-2.54ZM116.13,60.64l1.18.3c-.09.4-.14.78-.16,1.14-.34,0-.68.01-1.02.02v-1.46ZM115.1,67.72c-2.98-3.6-7.56-8.6-11.17-10.22v-3.87l4.53.4c-1.03,2.63-.85,5.61,2.59,8.96l.15.15h.21s1.71,0,3.71-.02v4.6ZM112.58,70.65l-6.05-6.72c.28-.47.41-.97.35-1.44-.07-.51-.34-.95-.78-1.28-.22-.17-.54-.12-.71.11-.17.23-.12.54.1.71.22.16.35.36.38.59.04.3-.09.67-.35,1-.46.58-1.25.7-1.81.28-.22-.16-.53-.12-.7.09-.17.21-.14.52.06.7.27.24.43.58.45.93.01.33-.1.64-.31.87-.49.52-1.3.57-1.85.09-.2-.17-.49-.17-.68,0-.19.17-.22.47-.07.68.2.28.28.61.22.94-.06.33-.24.61-.52.8-.61.41-1.4.29-1.81-.27-.17-.22-.49-.28-.71-.11-.14.1-.21.26-.21.41,0,.1.03.21.1.3.2.28.29.64.23.98-.06.33-.24.61-.51.79-.47.32-1.13.44-1.6-.13l.1-3.67c1.68-.08,3.16-.79,3.93-1.98.68-1.05.74-2.34.17-3.54-.14-.3-.25-.59-.32-.86h0c-.22-.82-.13-1.49.26-2.01.6-.8,1.77-1.02,2.35-.92,3.61.59,9.91,7.42,14.39,13.3-.91.32-2.72.7-4.09-.67M107.5,70.77l-3.36-3.88c.25-.38.41-.82.39-1.3,0-.14-.03-.28-.06-.42.48,0,.96-.17,1.37-.47l5.64,6.26c-.67.45-2.41,1.36-3.98-.19M102.44,70.83c-.28-.32-.81-.97-1.15-1.38.26-.3.47-.64.53-1.04.03-.16.04-.32.03-.48.53.08,1.08-.02,1.56-.31l3.33,3.85s0,0,0,0c-.83.42-2.8,1.11-4.32-.65M98.67,71.12c.1-.19.2-.38.23-.6.02-.1.03-.2.03-.3.5.13,1.05.08,1.56-.15.34.42.89,1.1,1.18,1.43.07.08.16.14.23.22-.79.23-2.2.41-3.23-.6M93.58,82.86c-.43-.16-.86-.32-1.27-.48l-.48-15.5s0-.01,0-.02,0-.01,0-.02l-.06-1.93h3.17l-.46,17.6-.9.33ZM96.53,82.85c.91-.34,1.62-.61,1.89-.71,2.27-.86,3.77-1.43,3.91-2.82.06-.6-.17-1.13-.62-1.47-.54-.4-1.34-.48-2.04-.19-1.06.44-1.75.45-2.05.02-.34-.5-.57-1.13.33-2.08,1-1.05,2.73-1.44,4.39-1,1.98.52,3.01,2.58,2.56,5.12-.38,2.15-1.32,3.37-6.08,5.23-.27-.14-.54-.28-.83-.4-.37-.15-1.56-.61-2.97-1.14l1.5-.56ZM104.26,87.11c.33.35.65.71.94,1.1.14.18.38.24.58.17l1.52-.56c.39.57.74,1.15,1.04,1.75l-1.23,1.02c-.18.15-.23.39-.14.6.2.45.38.92.54,1.4.07.21.26.35.49.35h1.63c.17.64.3,1.3.38,1.96l-1.5.54c-.22.08-.35.29-.34.52.03.36.04.72.04,1.09,0,.16,0,.32,0,.47,0,.22.13.42.34.5l1.53.55c-.06.66-.16,1.31-.3,1.95h-1.58c-.27,0-.43.14-.49.37-.15.53-.33,1.06-.53,1.57-.08.21-.03.44.15.58l1.25,1.04c-.27.58-.59,1.14-.93,1.69l-1.49-.55c-.21-.08-.46,0-.59.18-.33.47-.7.92-1.08,1.35-.15.17-.18.41-.06.6l.82,1.4c-.45.44-.93.86-1.42,1.24l-1.21-1.02c-.18-.15-.43-.16-.62-.03-.21.15-.86.58-1.6.96-.06-.91-.3-1.78-.7-2.58,3.34-1.82,5.55-5.03,6.07-8.91l.08-.58h-4.07c-.27-.83-.72-1.51-1.26-2.05h5.33l-.08-.58c-.31-2.33-.86-4.8-3.77-7.04-.02-.01-.04,0-.07-.02-.4-.94-1.09-1.8-2.03-2.5,1.51-.62,2.67-1.2,3.53-1.81.53.38,1.02.78,1.57,1.31l-.81,1.38c-.12.2-.08.45.07.61M97.29,114.63c.48-.82,1.01-2.07.99-3.54-.02-1.54-.82-2.85-2.23-3.68-.56-.33-2.06-1.12-3.64-1.95-1.04-.55-2.07-1.09-2.79-1.48-1.52-.83-3.36-2.27-3.48-4.47-.11-1.9.82-3.26,2.82-4.16.91.36,1.98.76,3.08,1.18.02,0,.03.01.05.02-.11.05-.22.09-.33.14l-.77.32c-1.67.67-2.1,1.58-2.17,2.23-.1.93.5,1.91,1.59,2.64.25.17,1.08.62,2.43,1.34,1.21.65,2.57,1.39,3.35,1.84,2.13,1.25,3.27,3.18,3.22,5.45-.05,2.12-1.18,3.42-2.11,4.14M93.56,117.19c-.05,0-.1,0-.15,0l-.39-9.65.57-.3c.12.06.24.13.35.19l-.39,9.76ZM91.08,107.42c-1.42.83-2.21,2.14-2.23,3.68-.02,1.47.51,2.71.99,3.54-.93-.72-2.06-2.02-2.11-4.14-.05-2.22.83-3.9,2.56-5.02.52.27,1.08.57,1.65.87.19.1.38.2.57.3l-.23.12c-.54.28-.95.49-1.2.64M88.03,106.15c-2.68-1.59-4.51-4.22-5.08-7.32h2.18c-.02.25-.02.5-.01.73.12,2.12,1.51,3.95,4.02,5.31.04.02.08.04.12.07-.47.36-.88.77-1.22,1.21M85.12,109.04l-1.21,1.03c-.49-.37-.95-.77-1.4-1.19l.81-1.39c.11-.19.09-.44-.07-.61-.42-.45-.82-.93-1.18-1.43-.13-.19-.38-.26-.59-.18l-1.49.55c-.33-.52-.64-1.06-.9-1.61l1.24-1.03c.17-.14.23-.38.14-.59-.23-.54-.42-1.11-.59-1.71-.06-.22-.26-.38-.49-.37h-1.58c-.13-.61-.23-1.23-.29-1.85l1.53-.55c.21-.08.35-.28.34-.5,0-.18-.01-.37-.01-.56,0-.4.02-.79.05-1.18.02-.23-.12-.44-.33-.52l-1.49-.53c.09-.64.21-1.28.37-1.89h1.63s0,0,0,0c.22,0,.42-.14.49-.35.17-.53.37-1.04.6-1.54.1-.21.04-.46-.14-.6l-1.22-1.01c.31-.58.65-1.14,1.02-1.68l1.53.56c.2.08.44.01.58-.16.32-.41.67-.81,1.04-1.18.16-.16.19-.42.08-.61l-.81-1.38.03-.03c.41-.4.68-.65,1.16-.99.88.61,1.98,1.16,3.32,1.66-1.12.83-1.87,1.87-2.2,3.02-.04.02-.09.02-.13.05-1.6,1.52-2.82,4.5-3.09,6.51l-.08.58h4.76c-.65.65-1.03,1.35-1.22,2.05h-3.54l.08.58c.49,3.65,2.54,6.76,5.63,8.62-.42.79-.66,1.68-.74,2.65-.52-.31-.97-.63-.98-.64-.19-.14-.45-.13-.63.02M102.31,89.77c1.6,1.59,2.09,3.25,2.36,4.96h-5.24c1.8-1.05,2.9-2.75,2.91-4.66,0-.1-.02-.2-.03-.31M91.49,88.65l.09,2.84c-.17-.07-.35-.14-.49-.2-.73-.29-1.2-.8-1.19-1.29,0-.48.47-.93,1.29-1.24l.31-.12ZM94.22,92.02l-.67.27c-.32-.13-.64-.26-.94-.38l-.12-3.63c.35-.13.69-.26,1.06-.4.25.09.5.19.76.28l-.1,3.85ZM95.94,88.76c.81.3,1.28.75,1.29,1.24,0,.49-.46,1-1.19,1.29l-.79.32.08-3.07c.2.08.4.15.61.22M87.73,94.74h-4.77c.29-1.39,1.01-3.14,1.91-4.41,0,.01,0,.03,0,.04.13,1.77,1.2,3.37,2.86,4.37M95.76,97.95c.66.27,1.47.73,1.54,1.39.05.53-.39,1.19-1.13,1.68-.14.09-.62.35-1.2.67l.11-4.01c.22.09.48.19.69.27M92.94,102.1l-.14-4.76c.22-.09.45-.18.69-.27.19.07.39.15.58.22l-.13,4.96s-.07.04-.11.06l-.25.14c-.09-.04-.17-.09-.26-.14-.13-.07-.25-.13-.37-.2M91.79,97.76l.11,3.78c-.46-.25-.82-.45-.94-.53-.74-.5-1.19-1.16-1.14-1.69.07-.66.87-1.12,1.54-1.39l.43-.18ZM97.41,104.03l-.5.27c-.07-.05-.14-.1-.21-.14-.5-.29-1.26-.71-2.05-1.14,1.13-.61,1.86-1.01,2.08-1.15,1.09-.73,1.68-1.71,1.59-2.64-.07-.64-.5-1.55-2.17-2.23-1.1-.45-2.44-.95-3.75-1.44-1.15-.43-2.27-.85-3.2-1.22-1.91-.76-3.17-2.31-3.3-4.05-.12-1.66.82-3.2,2.57-4.25l.43.15c.86.31,1.97.7,3.2,1.15-.09.04-.19.07-.28.11l-.97.36c-1.23.46-1.94,1.25-1.95,2.18-.01.93.69,1.8,1.83,2.25,1.63.65,4.89,1.95,6.91,2.81,1.32.56,3.51,1.89,3.37,4.46-.12,2.2-1.96,3.65-3.58,4.52M102.01,99.57c.01-.26-.02-.5-.04-.74h2.69c-.6,3.3-2.58,6.02-5.49,7.59-.37-.53-.82-1.02-1.34-1.45l.16-.09c2.51-1.36,3.9-3.2,4.02-5.31M82.21,79.71c-.45-2.55.58-4.61,2.56-5.13,1.67-.44,3.4-.04,4.39,1,.9.94.67,1.58.33,2.08-.29.43-.98.42-2.05-.02-.7-.29-1.5-.21-2.04.19-.45.34-.68.88-.62,1.47.14,1.38,1.64,1.95,3.91,2.82l1.92.72c.79.29,1.75.66,2.72,1.02.01,0,.03.01.04.02,1.9.71,3.77,1.42,4.22,1.61,2.37.99,3.73,2.66,3.71,4.58-.02,1.76-1.2,3.33-3.11,4.14-.06-.03-.13-.06-.19-.09-.88-.38-2-.83-3.11-1.29l1.5-.6c1.14-.46,1.84-1.32,1.83-2.25-.01-.93-.72-1.72-1.95-2.18-2.64-.98-5.36-1.96-7.06-2.57l-1.47-.53c-3.45-1.26-5.16-2.8-5.55-4.99M74.49,81.33c-1.1-.74-1.83-2.15-1.81-3.5.02-1.07.49-1.94,1.33-2.47.91-.58,2.49-.45,3.61.91l-3.29,2.11c-.24.15-.3.47-.15.7.1.15.26.24.43.24.1,0,.19-.03.28-.08l6.03-3.87c.24-.15.31-.47.15-.7-.15-.24-.47-.31-.7-.15l-1.91,1.23s0-.08-.04-.12c-1.49-1.82-3.66-1.94-4.95-1.13-1.14.72-1.78,1.89-1.8,3.32-.01.73.17,1.45.47,2.12l-.36.25c-1.18-1.06-2.54-1.77-3.7-1.9-2.44-.27-4.27.48-5.43,2.22-.96,1.45-1.23,3.39-.73,5.31.09.33.22.63.34.94l-1.39.98v-27.96l2.82-1.92.02-3.9,1.45-1.45,1.45,1.45-.02,3.8,9.89,4.5c-3.55,3.51-6.78,7.7-7.73,8.98-.09.12-.12.27-.09.42.03.15.13.27.26.34.6.31,1.59.64,2.67.64.93,0,1.92-.27,2.8-.96.63.48,1.62.97,2.74.97.59,0,1.21-.16,1.82-.5.65.41,1.69.84,2.83.84.65,0,1.32-.17,1.97-.52.53.24,1.32.47,2.19.47s1.86-.28,2.65-1.01c.03.02.04.05.07.07.51.35,1.04.52,1.53.52.28,0,.54-.07.78-.18l.3,9.68c-.09-.03-.2-.07-.29-.11l-1.91-.72c-2.09-.8-3.19-1.25-3.26-1.97-.02-.25.05-.43.21-.55.26-.19.67-.22,1.04-.06,1.58.65,2.67.53,3.28-.35.53-.77.89-1.98-.43-3.36-1.25-1.31-3.36-1.81-5.39-1.28-2.18.57-3.46,2.54-3.42,5.07l-2.46,1.59c-.24.15-.31.47-.15.7.1.15.26.23.43.23.1,0,.19-.03.28-.08l2.02-1.3s0,.05,0,.08c.05.3.13.6.23.88-1.59,1.15-4.72,2.06-6.95.56M75.41,88.37c-2.42,1.61-6.5,2.58-9.74.9-1.33-.69-2.34-2.04-2.77-3.71-.43-1.64-.21-3.28.59-4.49,1.25-1.89,3.14-1.92,4.47-1.77.88.1,1.97.67,2.94,1.48l-6.53,4.46c-.23.16-.29.48-.13.71.1.14.26.22.42.22.1,0,.2-.03.29-.09l7.68-5.25c.36.52.78,1,1.29,1.35.47.32.98.54,1.49.7l-8.08,5.32c-.24.15-.3.47-.14.7.1.15.26.23.42.23.1,0,.19-.03.28-.08l5.73-3.77c.14.63.24,1.55.08,2.59-.04.28.15.54.43.58.03,0,.05,0,.08,0,.25,0,.47-.18.5-.43.22-1.44,0-2.64-.19-3.34l2.28-1.5s.02-.04.04-.06c.13,0,.26.03.39.03.5,0,1-.06,1.48-.15-.44,2.32-1.58,4.23-3.31,5.38M65.65,96.36l-.39.15c-.08.03-.15.07-.23.11l-2.6-3.8,3.43-2.36c1.2.51,2.43.73,3.61.73,1.34,0,2.62-.26,3.74-.64-1.36,3.4-5.03,4.85-7.54,5.81M66.68,100.89c-3.39-2.66-7.18-3.44-8.17-3.61l-.76-1.17s0-.04-.01-.06c-.01-.02-.04-.02-.05-.03l-5.21-8.03,3.69-2.51,10.53,15.4h-.01ZM55.45,97.01l-1.97-3,1.19-.79,1.94,2.99-1.15.79ZM62.71,87.69c.54.93,1.26,1.7,2.12,2.24l-2.98,2.05-1.7-2.49,2.56-1.8ZM58.47,65.13v-3.7l1.38-.93v4.29l-1.38.34ZM56.39,54.59l1.05-.04v10.84l-1.7.42.65-11.22ZM58.49,50.55c.66-.65.62-1.57.6-2.12v-.2c0-.43.11-.99.99-1.52.8-.48,2.2-1.34,2.66-1.67,1.2-.83,1.34-1.85,1.33-2.83-.01-1,.06-1.78,1.12-2.03.96-.22,1.61-.64,2.01-1.3.43-.72.65-.91,1.24-1.06-.02.35-.04.81-.07,1.28-.07.89-.63,1.59-1.72,2.12-1.15.56-1.52.82-1.56,2.45l-.04,1.32c-.02.74-.03,1.29-.05,1.64-.03.45-.13.83-1.18,1-.79.13-1.5.51-1.96.77-.77.44-1.04,1.24-1.04,1.84,0,.22,0,.49-.01.75,0,.27-.01.54-.01.77,0,.66-.85.89-1.58.89-.89,0-1.36.43-1.58.85l-1.21.05c.05-.46.21-1.16.72-1.68l1.34-1.34ZM69.15,55.88l-.1,1.88-1.44-.65v-2.14s.89.88.89.88c.18.18.45.17.65.03M72.51,35.94q1.14,0,1.92-.02c1.03-.02,1.55-.79,1.96-1.51.25-.44.95-.48,1.52-.29l.32.11c.64.22,1.06.36,1.53.36.44,0,.82-.17,1.05-.47.15-.2.3-.55.16-1.07-.04-.13-.08-.26-.13-.39-.2-.53-.27-.78.1-1.17.58-.61,1.74-.46,2.56-.3.78.16,3.07.42,4.26-.23.19-.1.36-.21.52-.32.63-.41,1-.65,2.43-.1,1.85.72,4.04.76,5.5.7-.23.28-.62.59-1.27.79-2.08.65-3.6.68-5.68.65l-1.15-.02c-1.14-.02-1.83-.03-2.16,0-.54.04-1.01.25-1.3.6-.26.31-.37.7-.32,1.14.03.22.04.54-.11.72-.16.17-.49.2-.75.2-.78-.02-1.44-.02-1.98-.02h-.77c-.61-.01-1.58-.02-2.02.85-.04.08-.08.17-.11.25-.17.38-.26.56-1.23.53l-.84-.02c-.29,0-.57-.01-.96-.03-.54-.02-1.04-.03-1.7-.03-.36,0-.68.13-.91.37-.22.23-.33.52-.38.78h-1.43c.03-.54.16-1.31.57-1.74.21-.23.49-.34.83-.34M70.05,58.21l1.02-19.17h1.41v20.28l-2.43-1.11ZM75.46,49.27h3.16v1.18c0,.28.23.51.51.51h1.69v7.6c-1.16.79-2.37,1.8-3.55,2.93l-1.81-.82v-11.4ZM83.67,41.39v15.77c-.58.16-1.19.42-1.83.78v-16.55h1.83ZM88.92,51.05c.28,0,.51-.23.51-.51v-2.41h1.38v13.95c-.43.5-.71,1.13-.77,1.83h-.79v-11.41c0-.28-.23-.51-.51-.51h-4.05v-.93h4.23ZM90.79,66.33c-1.4-.11-2.52-.64-3.11-1.57-.49-.76-.53-1.65-.12-2.52.92-1.97.48-3.21-.05-3.92-.69-.91-1.87-1.32-2.82-1.32v-4h3.54v11.31c0,.16.09.29.2.38.09.13.22.23.39.23h1.91l.04,1.4ZM88.72,70.34c-.06-.34.02-.7.23-.98.06-.09.1-.19.1-.3,0-.16-.07-.31-.21-.41-.22-.17-.55-.11-.71.11-.4.56-1.2.68-1.81.27-.28-.19-.46-.47-.52-.8-.06-.33.02-.66.22-.94.15-.21.12-.5-.07-.68-.19-.17-.49-.18-.68,0-.53.47-1.36.42-1.85-.09-.22-.23-.33-.54-.31-.87.02-.36.18-.7.45-.93.21-.18.23-.49.06-.7-.17-.21-.48-.25-.7-.09-.56.41-1.35.29-1.81-.28-.27-.33-.39-.7-.35-1.01.03-.23.15-.43.37-.59.23-.17.27-.49.1-.71-.17-.23-.49-.27-.71-.11-.44.33-.71.77-.78,1.27-.06.49.08,1.01.38,1.49l-6.06,6.66c-1.38,1.38-3.2,1.01-4.11.69,4.48-5.88,10.78-12.71,14.39-13.3.6-.1,1.75.13,2.35.92.53.69.51,1.66-.06,2.86-.56,1.18-.5,2.46.18,3.51.78,1.22,2.27,1.97,4,2.04l.12,3.74s-.01,0-.02.01c-.53.73-1.42.21-1.68.03-.27-.19-.45-.47-.51-.8M84.96,71.49c.32-.37.91-1.08,1.2-1.41.5.22,1.04.26,1.54.13,0,.1.01.2.03.3.04.22.14.41.24.6-1.04,1.01-2.44.83-3.24.6.08-.08.16-.13.24-.22M79.9,71.44l3.3-3.82c.47.28,1.02.39,1.56.31,0,.16,0,.32.03.48.07.41.28.75.55,1.06-.29.34-.85,1.01-1.16,1.37-1.51,1.75-3.49,1.05-4.32.64.01-.01.03-.02.04-.03M80.83,64.73c.4.28.86.44,1.33.45-.03.13-.05.27-.06.42-.02.48.14.91.39,1.3l-3.33,3.85c-1.58,1.56-3.33.67-4,.22l5.67-6.23ZM95.4,63.88s-.04.02-.06.03h-4.26c.14-1.09,1.04-1.94,2.16-1.94s2,.84,2.16,1.91M95.17,58.47c-.56-1.6-.24-3.47.8-4.96l2.77,7.88s0,0,0,0c.01.04.02.08.04.13-1.79-.49-3.08-1.53-3.61-3.06M102.44,57.01c-1.01-.17-2.51.24-3.33,1.31-.08.11-.16.24-.24.38l-2.01-5.7,6.04.54v3.59c-.15-.04-.31-.1-.46-.13M97.71,49.41c.29.13.6.22.94.22.68,0,1.28-.32,1.68-.79.48.96,1.43,1.65,2.57,1.79v1.89l-6.08-.54.89-2.57ZM99.8,47.77c-.15.48-.6.83-1.15.83s-1-.36-1.15-.83h2.3ZM100.52,42.35c.46.87,1.36,1.53,2.39,1.7v2.7h-4.29l1.9-4.4ZM102.87,36.9v3.65h-1.58l1.58-3.65ZM98.95,32.4v-2.16l3.92.76v2.15l-3.92-.75ZM105.57,47.77c-.17,1.05-1.09,1.88-2.24,1.88s-2.07-.82-2.24-1.88h4.49ZM109.16,47.77c-.15.48-.6.83-1.15.83s-1.01-.36-1.15-.83h2.31ZM103.92,44.04c1.02-.18,1.92-.85,2.38-1.72l1.9,4.43h-4.28v-2.71ZM105.54,41.58c-.28.82-1.17,1.49-2.12,1.5,0,0,0,0,0,0,0,0,0,0-.01,0,0,0,0,0,0,0-.94,0-1.84-.68-2.12-1.5h4.25ZM105.55,40.56h-1.66v-3.89l1.66,3.89ZM107.33,40.05c.82.37,1.7.56,2.64.56.85,0,1.74-.15,2.68-.46l-.84,2.39s.01.07,0,.1h-.05v.51c0,1.24.77,2.34,1.88,2.93l-3.2,4.5h-2.85c-.28,0-.51.23-.51.51s.23.51.51.51h2.17c-.31.47-.61.95-.86,1.45l-4.98-.44v-2c1.06-.19,1.94-.86,2.4-1.77.41.47,1,.78,1.69.78,1.12,0,2.01-.81,2.17-1.85h1.05c.26,0,.47-.23.47-.51s-.21-.51-.47-.51h-1.93l-3.18-7.44c.36.27.75.53,1.2.73M109.99,35.08h-.06c-.81-.2-.91-.23-.94-.79-.06-1.27-.6-1.71-1.45-2.02-1.04-.38-1.56-1.06-1.83-1.64.88.22,2.11.52,3.38.85.58.15.91.5.99,1.05.14,1.02.88,1.63,2.26,1.88.97.17,1.7.3,2.2.39l-.7,1.97c-.81-.97-2.48-1.36-3.86-1.69M118.1,42.65h-2.1v-5.37s2.1,5.37,2.1,5.37ZM114.96,36.67l.02,5.97h-2.12l2.1-5.97ZM115.45,45.54c-1.25,0-2.33-.81-2.6-1.87h5.23c-.28,1.04-1.39,1.87-2.63,1.87M115.12,53.69v8.42c-1.18.01-2.23.02-2.91.02l2.91-8.44ZM115.13,46.53v4.06s-3.45,0-3.45,0l2.94-4.13c.17.04.34.05.51.07M111.01,51.61h3.75s-3.51,10.15-3.51,10.15c-3.48-3.72-2.67-6.79-.25-10.15M124.79,51.6c-1.58,1.91-2.3,3.97-2.18,6.16l-4.64,2.29-1.84-.47v-7.98s8.66,0,8.66,0ZM124.95,48.94c-.36-.34-1.05-1.21-1.07-2.03-.03-1.15-.44-2.17-1.11-2.72-1.62-1.34-2.13-3.44-2.28-4.79.68.73,1.6,1.68,2.52,2.5.73.64,1.33,1.5,1.34,1.9,0,.23.01.44.01.63.02,1.15.03,1.78.84,2.55.55.52,1.13.98,1.39,1.19l.03.08v2.11c-.24-.25-.51-.46-.79-.68-.32-.24-.59-.45-.89-.74M129.52,57.61l-1.88-1.72v-4.35l1.88,6.08ZM127.64,57.27l2.48,2.27,1.21,3.91-3.69-.94v-5.24ZM123.6,61.48l-4.11-1.04,3.26-1.61c.15.86.44,1.75.85,2.65M124.87,61.81c-.64-1.2-1.01-2.34-1.17-3.45l2.92-1.44v5.33s-1.76-.45-1.76-.45ZM126.52,53.29c0,.09.06.17.1.24v2.25l-3,1.48c0-2.03.86-3.92,2.59-5.71.2.38.31.89.31,1.74M135.57,64.53l-3.09-.78-.88-2.85,3.96,3.63ZM70.59,100.9c.57-.59,1.36-.93,2.02-.93.33,0,.62.08.85.25.33.26.54.67.59,1.15.06.66-.18,1.37-.67,1.93-1.06,1.21-2.55,1.79-4.08,1.92-.13-1.26,0-3,1.29-4.34M138.99,65.4l-1.33-.34-6.65-6.09-3.37-10.88v-3.06c0-.28-.23-.51-.51-.51s-.51.23-.51.51v1.79c-.22-.19-.46-.39-.69-.61-.49-.46-.49-.72-.51-1.79,0-.2,0-.41-.01-.65-.03-1.13-1.42-2.42-1.7-2.66-1.61-1.42-3.23-3.29-3.41-3.5-.14-.16-.36-.22-.57-.16-.2.07-.35.25-.36.47,0,.05-.31,4.58,2.72,7.1.42.35.7,1.11.72,1.93.03,1.17.89,2.3,1.4,2.78.34.32.66.57.94.79l.03.03s.05.04.08.06h-9.13s0-4.09,0-4.09c1.69-.31,3.02-1.71,3.02-3.33v-.51h0s.01-.06,0-.08l-3.19-8.08v-2.18c0-.28-.23-.51-.51-.51h0c-.28,0-.51.23-.51.51v1.49c-.47-.08-1.26-.22-2.42-.43-1.29-.23-1.36-.75-1.4-.98-.14-.98-.77-1.67-1.77-1.93-1.92-.51-3.75-.94-4.29-1.07-.17-.04-.34,0-.47.12-.13.11-.19.28-.18.45,0,.02.21,2.39,2.75,3.32.54.19.71.32.75,1.08.07,1.36.92,1.56,1.75,1.76h.06c1.26.31,2.98.72,3.42,1.53.13.25.14.55,0,.91-.02.04.01.09,0,.13l-.08.22c-2.03.83-3.83.91-5.34.23-1.58-.71-2.52-2.1-3-3l-.87-2.04v-5.43c0-.28-.23-.51-.51-.51s-.51.23-.51.51v1.29l-4.35-.84c-.15-.03-.31,0-.44.11-.12.1-.19.25-.19.41v3.23c0,.25.18.47.43.52l4.55.88v.1l-2.69,6.22h0v.02l-2.67,6.18h-3.18c-.26,0-.47.23-.47.51s.21.51.47.51h2.15c.05.35.19.66.39.94l-1.1,3.18-1.48-.13c-.32-.03-.53.18-.55.46-.02.28.18.53.46.55l.97.09c-1.26,1.76-1.64,4.01-.97,5.95.72,2.07,2.5,3.44,5.03,3.91.22.74.14,1.46-.26,2.09-.58.89-1.72,1.41-3.05,1.51l.04-1.38h1.17c.28,0,.51-.23.51-.51s-.23-.51-.51-.51h-.67c-.14-1.65-1.52-2.96-3.21-2.96-.51,0-.99.13-1.42.34v-13.67c0-.28-.23-.51-.51-.51h-2.4c-.28,0-.51.23-.51.51v2.41h-3.72v-9.16c0-.28-.23-.51-.51-.51h-2.85c-.28,0-.51.23-.51.51v9.06h-1.18v-1.18c0-.28-.23-.51-.51-.51h-4.18c-.28,0-.51.23-.51.51v11.44l-.94-.43v-21.25s0,0,0-.01c0,0,0,0,0,0,0-.1.02-.43.15-.56.02-.02.06-.06.18-.06.64,0,1.13,0,1.66.03.4.01.68.02.98.03l.83.02c1.59.04,1.91-.49,2.2-1.14l.09-.2c.15-.29.58-.3,1.18-.3h.7c.53,0,1.19,0,1.96.02.69.04,1.2-.17,1.53-.54.49-.54.4-1.28.37-1.52-.02-.15.01-.28.09-.37.11-.13.32-.22.58-.24.29-.02,1,0,2.07,0l1.15.02c2.11.03,3.78,0,6-.7,2.07-.64,2.29-2.18,2.3-2.25.02-.15-.03-.3-.13-.41-.1-.11-.26-.16-.4-.16-1.26.07-3.88.21-5.92-.59-1.78-.7-2.48-.38-3.36.19-.14.09-.29.19-.45.28-.77.42-2.58.33-3.57.13-1.05-.21-2.57-.38-3.49.59-.83.86-.52,1.68-.32,2.23.04.11.08.21.11.31s.02.16.01.17c-.02.03-.11.07-.23.07-.29,0-.63-.12-1.2-.31l-.33-.11c-1.13-.37-2.25-.06-2.72.76-.42.74-.7.99-1.19,1-.68.01-.68.01-1.79.01-.67-.03-1.19.22-1.59.66-.93.98-.86,2.74-.85,2.95l-.88,16.57-4.03-4.03-4.1,4.1c-.2.2-.2.52,0,.72.1.1.23.15.36.15s.26-.05.36-.15l.9-.9v2.34s-2.84,1.92-2.84,1.92v.03l-1.38.93v-6.04s.01-.01.01-.02c.02-.11.12-.46.75-.46,1.55,0,2.6-.77,2.6-1.91,0-.22,0-.48.01-.75,0-.27.01-.54.01-.77,0-.11.03-.67.53-.96.4-.23,1-.54,1.62-.65.83-.14,1.94-.49,2.03-1.95.02-.35.04-.92.06-1.68l.03-1.31q.03-1.09,1.05-1.59c1.73-.84,2.17-2.06,2.23-2.94.08-1.01.1-1.97.1-1.97,0-.15-.06-.3-.18-.4-.12-.1-.28-.14-.43-.11-1.26.24-1.79.39-2.56,1.66-.24.41-.69.68-1.36.83-1.96.45-1.93,2.2-1.91,3.14.01.78-.13,1.34-.9,1.88-.39.28-1.66,1.06-2.6,1.63-1.01.6-1.49,1.38-1.49,2.39v.24c.02.43.04,1.02-.3,1.36l-1.42,1.43c-1.02,1.02-.97,2.58-.95,2.84l-.69,11.97-4,.99c-.27.07-.44.34-.37.62.06.23.26.39.49.39.04,0,.08,0,.12-.02l8.9-2.21v22.62l-.28.2-2.85-4.17c-.16-.23-.47-.29-.71-.13l-4.52,3.07c-.23.15-.29.47-.14.7l2.76,4.25-1.62,1.07c-.24.15-.3.47-.14.7l2.54,3.86c.07.12.19.19.33.22.03,0,.06.01.1.01.1,0,.2-.03.29-.09l1.56-1.07.62.96c.08.13.21.21.36.23.03,0,1.7.24,3.84,1.1-.21.43-.38.87-.44,1.33-.2,1.56.5,3.02,1.98,4.09,1.24.9,3.13,1.51,5.07,1.51,2.03,0,4.11-.66,5.55-2.31.67-.77,1.01-1.76.91-2.7-.08-.77-.43-1.43-.98-1.86-1.1-.85-2.99-.5-4.22.77-1.53,1.59-1.72,3.6-1.58,5.07-1.61-.06-3.15-.56-4.15-1.3-1.17-.85-1.72-1.96-1.57-3.14.05-.36.2-.71.38-1.04,1.12.53,2.3,1.23,3.42,2.15.09.08.21.12.33.12s.23-.04.32-.11l.7-.57c.21-.17.25-.47.1-.69l-2.2-3.21s.01,0,.02,0l.39-.15c2.72-1.04,7.23-2.79,8.44-7.27.59-.27,1.11-.55,1.51-.83,2.09-1.39,3.44-3.71,3.85-6.53.8-.26,1.48-.61,2.03-.98.32.57.74,1.09,1.27,1.57-.41.31-.68.58-1.04.93l-.31.3c-.17.16-.2.42-.09.63l.81,1.39c-.21.22-.41.45-.6.69l-1.55-.57c-.21-.08-.45,0-.59.18-.57.79-1.08,1.63-1.52,2.5-.1.21-.05.47.13.62l1.24,1.03c-.13.31-.25.62-.37.94h-1.65s0,0,0,0c-.23,0-.43.15-.49.37-.26.91-.45,1.86-.55,2.83-.03.23.11.46.33.54l1.51.54c-.01.29-.02.58-.02.87,0,.07,0,.15,0,.22l-1.55.56c-.22.08-.35.29-.33.52.07.93.22,1.88.44,2.8.05.23.26.39.49.39h1.61c.11.37.24.74.38,1.09l-1.26,1.05c-.18.15-.23.4-.14.6.38.85.85,1.67,1.37,2.45.13.2.38.27.6.19l1.51-.56c.24.32.5.64.77.94l-.83,1.41c-.12.2-.08.45.08.62.66.66,1.37,1.26,2.12,1.81.09.06.2.1.3.1.12,0,.24-.04.33-.12l1.22-1.04c.3.2.78.5,1.26.73.26,4.04,3.82,5.46,3.97,5.52.06.02.12.03.18.03.09,0,.19-.03.27-.08.13-.08.22-.22.24-.38l.06-.5c.02-.14-.03-.29-.13-.4-.01-.02-1.5-1.7-1.47-3.89.02-1.5.95-2.36,1.73-2.82.11-.06.26-.15.43-.24l.39,9.59c0,.22.15.4.36.47.05.01.33.09.71.09.22,0,.47-.03.72-.1.21-.06.35-.25.36-.47l.39-9.68c.25.13.45.24.58.33.78.46,1.71,1.32,1.73,2.82.03,2.19-1.46,3.88-1.47,3.89-.1.11-.14.26-.13.4l.06.5c.02.16.11.29.24.38.08.05.17.08.26.08.06,0,.12-.01.18-.03.15-.06,3.55-1.43,3.94-5.29.75-.34,1.45-.76,1.89-1.05l1.22,1.04c.18.15.44.16.63.02.76-.56,1.48-1.19,2.14-1.87.16-.16.19-.42.08-.61l-.83-1.42c.24-.27.46-.56.68-.85l1.51.56c.22.08.47,0,.6-.2.54-.81,1-1.66,1.39-2.52.09-.21.04-.45-.14-.6l-1.27-1.05c.12-.31.22-.63.32-.95h1.61s0,0,0,0c.23,0,.44-.16.49-.39.23-.94.38-1.92.45-2.89.01-.23-.12-.44-.34-.51l-1.56-.56v-.13c0-.26,0-.52-.02-.78l1.52-.54c.22-.08.36-.3.34-.53-.11-.99-.3-1.97-.57-2.91-.06-.22-.26-.37-.49-.37h-1.65c-.09-.26-.19-.52-.3-.78l1.24-1.04c.18-.15.23-.4.13-.61-.43-.89-.95-1.75-1.54-2.57-.13-.19-.38-.26-.59-.18l-1.54.57c-.17-.2-.34-.4-.52-.6l.82-1.4c.12-.2.08-.46-.08-.62-.64-.62-1.18-1.08-1.76-1.51.95-.89,1.44-1.9,1.67-3.25.54-3.1-.78-5.63-3.31-6.29-2.03-.53-4.14-.03-5.39,1.28-1.32,1.38-.96,2.59-.43,3.36.6.88,1.7.99,3.28.35.37-.15.78-.12,1.04.06.17.13.24.31.21.55-.07.72-1.17,1.17-3.26,1.97-.27.1-.98.37-1.88.71l-.67.25.26-9.9c.26.12.54.18.82.18.46,0,.93-.15,1.38-.45.03-.02.04-.05.07-.07.79.74,1.75,1.01,2.65,1.01s1.66-.23,2.18-.47c.65.36,1.32.52,1.97.52,1.13,0,2.18-.42,2.82-.83.61.35,1.23.5,1.82.5,1.12,0,2.12-.49,2.75-.97.88.69,1.86.96,2.79.96,1.09,0,2.08-.33,2.68-.64.13-.07.23-.19.26-.34.03-.15,0-.3-.09-.42-.33-.45-.95-1.26-1.76-2.26v-5.86c.37,0,.73-.01,1.08-.02.07.37.17.7.33,1,.33.58.88,1,1.53,1.16.21.05.43.08.64.08.5,0,.98-.16,1.38-.42.07.3.17.59.33.86.22.39.53.72.88.99l-2.42,6.41c-.1.26.04.56.3.66.06.02.12.03.18.03.2,0,.4-.13.48-.33l.82-2.16,4.86,2.75.04,4.33c0,.28.23.51.51.51h0c.28,0,.51-.23.51-.51l-.1-10.55c.41.4.92.7,1.5.84.29.07.57.11.86.11.97,0,1.86-.44,2.49-1.13.03.07.03.15.07.22.32.55.84.94,1.46,1.1.2.05.45.09.71.09,1.15,0,2.72-.62,3.46-2.9l.71.18s.09.02.13.02c.23,0,.44-.15.49-.38.07-.27-.1-.55-.37-.62"/>
      <path class="cls-2" d="M51.54,79.13c.06-.12.07-.23.07-.51v-4.76c0-.22-.01-.42-.17-.58-.1-.1-.24-.16-.42-.16-.26,0-.45.13-.61.29l-1.2,1.2c-.18.18-.24.26-.28.38-.05.17,0,.35.15.5.15.15.34.2.5.15.12-.04.2-.1.38-.28l.51-.51v3.76c0,.27.01.38.07.51.08.17.26.27.49.27s.41-.1.49-.27"/>
      <path class="cls-2" d="M56.01,75.06c0,.57-.34.9-.8.9s-.8-.36-.8-.9.34-.9.8-.9.8.33.8.9M53.28,75.07c0,1.15.79,1.83,1.63,1.83.16,0,.32-.02.47-.08l-.83,1.65c-.11.23-.14.32-.14.44,0,.28.28.5.55.5.1,0,.19-.03.27-.08.1-.07.16-.16.27-.38l1.12-2.25c.28-.57.52-1.09.52-1.65,0-1.23-.83-1.91-1.93-1.91s-1.93.71-1.93,1.93"/>
      <path class="cls-2" d="M130.2,77.57c-.17.2-.29.37-.29.61,0,.17.06.3.15.4.15.16.36.16.59.16h2.34c.25,0,.35,0,.46-.06.15-.08.24-.23.24-.44s-.1-.36-.24-.44c-.11-.06-.21-.07-.46-.07h-1.62l1.48-1.78c.54-.65.79-.98.79-1.67,0-1.09-.75-1.69-1.87-1.69-.58,0-.97.15-1.3.43-.32.26-.51.67-.51,1.01,0,.15.04.28.13.4s.22.17.4.17c.14,0,.25-.04.32-.1.09-.08.16-.17.22-.32.16-.41.39-.58.77-.58.47,0,.73.3.73.7s-.16.64-.43.97l-1.89,2.29Z"/>
      <path class="cls-2" d="M136.83,74.6c-.42,0-.75.14-.92.3v-1.29h1.81c.25,0,.35,0,.46-.06.14-.08.24-.23.24-.44s-.1-.36-.24-.44c-.11-.06-.21-.06-.46-.06h-2.14c-.16,0-.37,0-.52.15-.15.15-.15.36-.15.52v2.18c0,.19.05.36.16.47.11.11.23.15.39.15.14,0,.22-.02.3-.07.08-.05.15-.11.22-.19.17-.18.37-.27.67-.27.56,0,.75.39.75,1.09,0,.39-.04.71-.23.91-.14.14-.31.19-.54.19-.36,0-.55-.12-.69-.46-.08-.2-.12-.26-.21-.34-.08-.08-.18-.11-.35-.11-.15,0-.3.05-.39.15-.1.1-.15.24-.15.42,0,.37.2.71.46.93.36.3.77.43,1.34.43.66,0,1.09-.23,1.36-.5.45-.45.54-.92.54-1.61,0-.58-.07-1.15-.55-1.63-.24-.24-.63-.41-1.13-.41"/>
    </g>
    <g>
      <path class="cls-2" d="M112.45,217.78c-4.04,0-7.71,1.6-10.44,4.18l.96,1.42c2.44-2.41,5.79-3.9,9.48-3.9,7.45,0,13.52,6.06,13.52,13.52,0,6.67-4.86,12.21-11.22,13.31l.31,1.67c7.15-1.24,12.61-7.48,12.61-14.98,0-8.39-6.83-15.22-15.22-15.22Z"/>
      <path class="cls-2" d="M83.81,217.77c-4.02,0-7.66,1.58-10.39,4.13l.96,1.42c2.44-2.38,5.76-3.85,9.43-3.85,7.45,0,13.52,6.06,13.52,13.52,0,6.62-4.79,12.14-11.09,13.29l.31,1.67c7.08-1.3,12.48-7.5,12.48-14.96,0-8.39-6.83-15.22-15.22-15.22Z"/>
      <path class="cls-2" d="M66.98,248.22h-1.77v-26.9c-6.07,4.98-13.14,7.88-16.05,8.95l-.61-1.66c3.06-1.12,10.83-4.32,16.95-9.87l1.48-1.34v30.83Z"/>
    </g>
  </g>
  <g>
    <rect class="cls-2" x="93.69" y="265.56" width="16.58" height="8.21"/>
    <rect class="cls-1" x="77.11" y="265.56" width="16.58" height="8.21"/>
  </g>
</svg>