<svg xmlns="http://www.w3.org/2000/svg" viewBox="0 0 120.26 46"><defs><style>.cls-1{fill:#3c3c3b;}</style></defs><title>Asset 1</title><g id="Layer_2" data-name="Layer 2"><g id="Layer_1-2" data-name="Layer 1"><path class="cls-1" d="M328.41,448.64h-3.33c-.07,0-.1,0-.1-.1v-6.19c0-.07,0-.1.1-.1h3.33c.07,0,.1,0,.1.1v.38c0,.07,0,.1-.1.1h-2.65c-.07,0-.1,0-.1.1V445c0,.07,0,.1.1.1h2.17c.07,0,.1,0,.1.1v.37c0,.08,0,.11-.1.11h-2.17c-.07,0-.1,0-.1.1V448c0,.07,0,.11.1.11h2.65c.07,0,.1,0,.1.1v.37c0,.07,0,.1-.1.1" transform="translate(-267.37 -431.22)"/><path class="cls-1" d="M334.3,448.64H331c-.07,0-.1,0-.1-.1v-6.19c0-.07,0-.1.1-.1h3.34c.07,0,.1,0,.1.1v.38c0,.07,0,.1-.1.1h-2.66c-.07,0-.1,0-.1.1V445c0,.07,0,.1.1.1h2.18c.07,0,.1,0,.1.1v.37c0,.08,0,.11-.1.11h-2.18c-.07,0-.1,0-.1.1V448c0,.07,0,.11.1.11h2.66c.07,0,.1,0,.1.1v.37c0,.07,0,.1-.1.1" transform="translate(-267.37 -431.22)"/><path class="cls-1" d="M338.38,448.75h-.44a1.69,1.69,0,0,1-1.37-.55,1.07,1.07,0,0,1-.2-.34.09.09,0,0,1,.06-.08l.39-.2.09,0,.08.05a1.2,1.2,0,0,0,.95.57h.44a1.09,1.09,0,0,0,1.1-1.09c0-.72-.65-1-1.37-1.36s-1.66-.75-1.66-1.91a1.62,1.62,0,0,1,1.77-1.67h.16a1.65,1.65,0,0,1,1.36.54,1.08,1.08,0,0,1,.23.33.11.11,0,0,1-.07.09l-.35.18a.43.43,0,0,1-.13.05l-.07,0a1.19,1.19,0,0,0-1-.56h-.16a1.07,1.07,0,0,0-1.08,1.08c0,.64.68.94,1.44,1.29s1.58.79,1.58,2a1.63,1.63,0,0,1-1.78,1.67" transform="translate(-267.37 -431.22)"/><path class="cls-1" d="M345.31,442.83h-1.23c-.07,0-.1,0-.1.1v5.61c0,.07,0,.1-.1.1h-.48c-.07,0-.1,0-.1-.1v-5.61c0-.07,0-.1-.1-.1H342c-.07,0-.1,0-.1-.1v-.38c0-.07,0-.1.1-.1h3.34c.07,0,.1,0,.1.1v.38c0,.07,0,.1-.1.1" transform="translate(-267.37 -431.22)"/><path class="cls-1" d="M348.08,448.64h-.48c-.07,0-.1,0-.1-.1v-6.19c0-.07,0-.1.1-.1h.48c.07,0,.1,0,.1.1v6.19c0,.07,0,.1-.1.1" transform="translate(-267.37 -431.22)"/><path class="cls-1" d="M329.18,457.32h-.61l-.09-.05-1.86-3s-.06-.07-.09-.07l-.08,0-.79,1v2c0,.07,0,.1-.11.1h-.47c-.07,0-.1,0-.1-.1V451c0-.08,0-.11.1-.11h.47c.08,0,.11,0,.11.11v3.05c0,.07,0,.12.09.12a.12.12,0,0,0,.09-.06l2.42-3.18.08,0h.54c.07,0,.11,0,.11.08l0,.09-1.88,2.31-.05.1a.22.22,0,0,0,.05.11l2.13,3.45a.59.59,0,0,1,.09.18c0,.05-.05.08-.12.08" transform="translate(-267.37 -431.22)"/><path class="cls-1" d="M334.86,457.32h-.52a.11.11,0,0,1-.11-.07l-.39-1.41s0-.06-.1-.06h-1.91c-.06,0-.1,0-.11.06l-.39,1.41a.09.09,0,0,1-.1.07h-.52c-.07,0-.11,0-.11-.08a1.28,1.28,0,0,1,.07-.26l1.82-6a.09.09,0,0,1,.1-.07H333c.06,0,.1,0,.11.07l1.8,5.93a1.87,1.87,0,0,1,.09.32c0,.05,0,.08-.11.08m-1.94-4.86s-.09-.32-.11-.4h0c0,.08-.09.34-.11.4l-.73,2.65c0,.05,0,.09.11.09h1.46c.07,0,.11,0,.11-.09Z" transform="translate(-267.37 -431.22)"/><path class="cls-1" d="M338.83,457.42h-.32a1.63,1.63,0,0,1-1.77-1.67V451a.1.1,0,0,1,.11-.11h.48c.08,0,.11,0,.11.11v4.72a1.08,1.08,0,0,0,1.07,1.09h.32a1.11,1.11,0,0,0,1.09-1.09V451c0-.08,0-.11.1-.11h.49c.07,0,.1,0,.1.11v4.72a1.63,1.63,0,0,1-1.78,1.67" transform="translate(-267.37 -431.22)"/><path class="cls-1" d="M345.18,457.32h-2c-.07,0-.1,0-.1-.1V451c0-.08,0-.11.1-.11h2a1.65,1.65,0,0,1,1.78,1.76v.11a1.48,1.48,0,0,1-.75,1.18s-.08.06-.08.11a.09.09,0,0,0,.06.08,1.45,1.45,0,0,1,.77,1.25v.15a1.65,1.65,0,0,1-1.78,1.76m1.1-4.74a1.09,1.09,0,0,0-1.1-1.08h-1.29c-.07,0-.1,0-.1.1v2.08c0,.07,0,.1.1.1h1.29a1.1,1.1,0,0,0,1.1-1.1Zm0,2.86a1.09,1.09,0,0,0-1.1-1.08h-1.29c-.07,0-.1,0-.1.1v2.18c0,.07,0,.1.1.1h1.29a1.09,1.09,0,0,0,1.1-1.09Z" transform="translate(-267.37 -431.22)"/><path class="cls-1" d="M352.94,457.32h-.52a.09.09,0,0,1-.1-.07l-.4-1.41s-.05-.06-.1-.06h-1.91c-.05,0-.09,0-.1.06l-.4,1.41a.09.09,0,0,1-.1.07h-.52c-.07,0-.11,0-.11-.08a1.28,1.28,0,0,1,.07-.26l1.82-6a.09.09,0,0,1,.1-.07h.39a.09.09,0,0,1,.1.07l1.8,5.93a1.87,1.87,0,0,1,.09.32c0,.05,0,.08-.11.08M351,452.46s-.1-.32-.12-.4h0c0,.08-.09.34-.11.4l-.73,2.65c0,.05,0,.09.11.09h1.46c.08,0,.12,0,.12-.09Z" transform="translate(-267.37 -431.22)"/><path class="cls-1" d="M358.9,457.32h-.47l-.1-.05-2.47-4.48c0-.07-.15-.28-.18-.36h0c0,.24,0,1.55,0,2.36v2.42c0,.07,0,.1-.1.1h-.48c-.07,0-.1,0-.1-.1V451c0-.08,0-.11.1-.11h.47a.11.11,0,0,1,.09.05l2.47,4.53a4,4,0,0,1,.18.36h0c0-.24,0-1.55,0-2.35V451c0-.08,0-.11.1-.11h.49c.07,0,.1,0,.1.11v6.19c0,.07,0,.1-.1.1" transform="translate(-267.37 -431.22)"/><path class="cls-1" d="M363.74,457.32h-2c-.07,0-.1,0-.1-.1V451c0-.08,0-.11.1-.11h2a1.65,1.65,0,0,1,1.78,1.76v2.86a1.66,1.66,0,0,1-1.78,1.78m1.1-4.74a1.09,1.09,0,0,0-1.1-1.08h-1.29c-.07,0-.1,0-.1.1v5c0,.07,0,.1.1.1h1.29a1.09,1.09,0,0,0,1.1-1.09Z" transform="translate(-267.37 -431.22)"/><path class="cls-1" d="M370,457.42h-.31a1.62,1.62,0,0,1-1.77-1.67V451c0-.08,0-.11.1-.11h.49c.07,0,.1,0,.1.11v4.72a1.08,1.08,0,0,0,1.08,1.09H370a1.11,1.11,0,0,0,1.09-1.09V451c0-.08,0-.11.1-.11h.49c.07,0,.1,0,.1.11v4.72a1.63,1.63,0,0,1-1.78,1.67" transform="translate(-267.37 -431.22)"/><path class="cls-1" d="M375.87,457.42h-.44a1.64,1.64,0,0,1-1.37-.55.89.89,0,0,1-.21-.34.09.09,0,0,1,.06-.08l.39-.2.09,0,.08,0a1.19,1.19,0,0,0,1,.57h.44a1.08,1.08,0,0,0,1.09-1.09c0-.72-.65-1-1.37-1.36s-1.66-.74-1.66-1.91a1.63,1.63,0,0,1,1.77-1.67h.17a1.69,1.69,0,0,1,1.36.54,1.19,1.19,0,0,1,.22.34.11.11,0,0,1-.07.09L377,452a.6.6,0,0,1-.14.05l-.07,0a1.18,1.18,0,0,0-1-.56h-.17a1.06,1.06,0,0,0-1.07,1.08c0,.64.68.94,1.44,1.29s1.57.79,1.57,2a1.62,1.62,0,0,1-1.77,1.67" transform="translate(-267.37 -431.22)"/><path class="cls-1" d="M381.16,455.42h-1.44c-.07,0-.1,0-.1-.1v-.49c0-.07,0-.1.1-.1h1.44c.07,0,.1,0,.1.1v.49c0,.07,0,.1-.1.1" transform="translate(-267.37 -431.22)"/><path class="cls-1" d="M327.83,460.18H326.6c-.07,0-.1,0-.1.1v5.61c0,.07,0,.1-.1.1h-.48c-.07,0-.1,0-.1-.1v-5.61c0-.07,0-.1-.1-.1h-1.23c-.07,0-.1,0-.1-.11v-.37c0-.07,0-.1.1-.1h3.34c.07,0,.1,0,.1.1v.37c0,.08,0,.11-.1.11" transform="translate(-267.37 -431.22)"/><path class="cls-1" d="M331.94,466.09h-.32a1.62,1.62,0,0,1-1.77-1.67v-1.93a1.63,1.63,0,0,1,1.77-1.67h.32a1.64,1.64,0,0,1,1.78,1.67v1.93a1.63,1.63,0,0,1-1.78,1.67m1.09-3.6a1.08,1.08,0,0,0-1.09-1.08h-.32a1.06,1.06,0,0,0-1.08,1.08v1.93a1.08,1.08,0,0,0,1.08,1.09h.32a1.11,1.11,0,0,0,1.09-1.09Zm-2-2.22a.4.4,0,0,1-.39-.44.4.4,0,0,1,.39-.42.41.41,0,0,1,.43.42.45.45,0,0,1-.43.44m1.54,0a.4.4,0,0,1-.4-.44.41.41,0,1,1,.82,0,.45.45,0,0,1-.42.44" transform="translate(-267.37 -431.22)"/><path class="cls-1" d="M338.14,466.09h-.32a1.63,1.63,0,0,1-1.77-1.67v-1.93a1.63,1.63,0,0,1,1.77-1.67h.32a1.64,1.64,0,0,1,1.78,1.67v1.93a1.63,1.63,0,0,1-1.78,1.67m1.09-3.6a1.08,1.08,0,0,0-1.09-1.08h-.32a1.05,1.05,0,0,0-1.07,1.08v1.93a1.08,1.08,0,0,0,1.07,1.09h.32a1.11,1.11,0,0,0,1.09-1.09Zm-2-2.22a.4.4,0,0,1-.39-.44.4.4,0,0,1,.39-.42.41.41,0,0,1,.43.42.45.45,0,0,1-.43.44m1.54,0a.4.4,0,0,1-.4-.44.41.41,0,1,1,.82,0,.45.45,0,0,1-.42.44" transform="translate(-267.37 -431.22)"/><path class="cls-1" d="M344.05,466.09h-.43a1.67,1.67,0,0,1-1.38-.55,1.05,1.05,0,0,1-.2-.33.09.09,0,0,1,.06-.08l.39-.21.09,0,.08.05a1.18,1.18,0,0,0,1,.57h.43a1.08,1.08,0,0,0,1.1-1.09c0-.72-.65-1-1.37-1.36s-1.66-.74-1.66-1.91a1.63,1.63,0,0,1,1.77-1.67h.16a1.72,1.72,0,0,1,1.37.54,1.34,1.34,0,0,1,.22.34.11.11,0,0,1-.07.09l-.35.17a.43.43,0,0,1-.13.05l-.07,0a1.22,1.22,0,0,0-1-.56h-.16a1.07,1.07,0,0,0-1.08,1.08c0,.64.68,1,1.45,1.29s1.57.8,1.57,2a1.63,1.63,0,0,1-1.78,1.67" transform="translate(-267.37 -431.22)"/><path class="cls-1" d="M351,460.18h-1.23c-.07,0-.1,0-.1.1v5.61c0,.07,0,.1-.1.1h-.48c-.07,0-.1,0-.1-.1v-5.61c0-.07,0-.1-.1-.1h-1.23c-.07,0-.1,0-.1-.11v-.37c0-.07,0-.1.1-.1H351c.08,0,.11,0,.11.1v.37c0,.08,0,.11-.11.11" transform="translate(-267.37 -431.22)"/><path class="cls-1" d="M355.09,466.09h-.31a1.62,1.62,0,0,1-1.77-1.67V459.7c0-.07,0-.1.1-.1h.49c.07,0,.1,0,.1.1v4.72a1.08,1.08,0,0,0,1.08,1.09h.31a1.11,1.11,0,0,0,1.09-1.09V459.7c0-.07,0-.1.1-.1h.49c.07,0,.1,0,.1.1v4.72a1.63,1.63,0,0,1-1.78,1.67" transform="translate(-267.37 -431.22)"/><path class="cls-1" d="M361,466.09h-.44a1.64,1.64,0,0,1-1.37-.55,1.13,1.13,0,0,1-.21-.33.09.09,0,0,1,.06-.08l.39-.21.09,0,.08.05a1.19,1.19,0,0,0,1,.57H361a1.07,1.07,0,0,0,1.09-1.09c0-.72-.65-1-1.37-1.36s-1.66-.74-1.66-1.91a1.63,1.63,0,0,1,1.77-1.67H361a1.69,1.69,0,0,1,1.36.54,1.34,1.34,0,0,1,.22.34.11.11,0,0,1-.07.09l-.34.17a.6.6,0,0,1-.14.05l-.07,0a1.2,1.2,0,0,0-1-.56h-.17a1.06,1.06,0,0,0-1.07,1.08c0,.64.68,1,1.44,1.29s1.58.8,1.58,2a1.63,1.63,0,0,1-1.78,1.67" transform="translate(-267.37 -431.22)"/><path class="cls-1" d="M369.29,466h-.61l-.09-.05-1.86-3s-.06-.07-.09-.07l-.08.05-.8,1v2c0,.07,0,.1-.1.1h-.48c-.07,0-.1,0-.1-.1V459.7c0-.07,0-.1.1-.1h.48c.07,0,.1,0,.1.1v3.05c0,.07,0,.12.09.12a.14.14,0,0,0,.1-.06l2.42-3.17.08,0H369c.07,0,.11,0,.11.08l0,.08-1.88,2.32-.06.09s0,.08.06.11l2.13,3.46a.49.49,0,0,1,.08.17s0,.08-.11.08" transform="translate(-267.37 -431.22)"/><path class="cls-1" d="M373.37,466.09h-.32a1.62,1.62,0,0,1-1.77-1.67v-3.27a1.63,1.63,0,0,1,1.77-1.67h.32a1.63,1.63,0,0,1,1.77,1.67v3.27a1.63,1.63,0,0,1-1.77,1.67m1.08-4.94a1.08,1.08,0,0,0-1.08-1.08h-.32a1.06,1.06,0,0,0-1.08,1.08v3.27a1.08,1.08,0,0,0,1.08,1.09h.32a1.1,1.1,0,0,0,1.08-1.09Z" transform="translate(-267.37 -431.22)"/><path class="cls-1" d="M379.72,466h-2c-.08,0-.11,0-.11-.1V459.7c0-.07,0-.1.11-.1h2a1.65,1.65,0,0,1,1.78,1.75v2.86a1.66,1.66,0,0,1-1.78,1.78m1.1-4.74a1.08,1.08,0,0,0-1.1-1.07h-1.29c-.07,0-.1,0-.1.1v5c0,.07,0,.1.1.1h1.29a1.09,1.09,0,0,0,1.1-1.09Z" transform="translate(-267.37 -431.22)"/><path class="cls-1" d="M387.52,466H387c-.06,0-.1,0-.11-.07l-.39-1.4s-.05-.06-.1-.06h-1.92c-.05,0-.09,0-.1.06l-.39,1.4c0,.05-.05.07-.11.07h-.51c-.07,0-.12,0-.12-.08a1.73,1.73,0,0,1,.08-.26l1.82-6a.09.09,0,0,1,.1-.07h.38a.11.11,0,0,1,.11.07l1.79,5.92a2.88,2.88,0,0,1,.1.32s-.05.08-.12.08m-1.93-4.86c0-.05-.09-.31-.11-.4h0c0,.09-.09.34-.11.4l-.73,2.65a.1.1,0,0,0,.11.1h1.46a.1.1,0,0,0,.11-.1Z" transform="translate(-267.37 -431.22)"/><path class="cls-1" d="M306.64,438a23,23,0,1,0,6.73,16.26A22.84,22.84,0,0,0,306.64,438m-.53,32a22.26,22.26,0,1,1,6.52-15.74A22.11,22.11,0,0,1,306.11,470" transform="translate(-267.37 -431.22)"/><path class="cls-1" d="M276.4,450.94h.53a.18.18,0,0,0,.18-.18v-1.4a.18.18,0,0,0-.18-.18h-.53a.18.18,0,0,0-.18.18v1.4a.18.18,0,0,0,.18.18m.18-1.4h.16v1h-.16Z" transform="translate(-267.37 -431.22)"/><path class="cls-1" d="M277.47,449.36v1.4a.18.18,0,0,0,.18.18h.52a.18.18,0,0,0,.18-.18v-1.4a.18.18,0,0,0-.18-.18h-.52a.18.18,0,0,0-.18.18m.36.18H278v1h-.16Z" transform="translate(-267.37 -431.22)"/><path class="cls-1" d="M276.4,453.43h.53a.18.18,0,0,0,.18-.18v-1.4a.18.18,0,0,0-.18-.18h-.53a.18.18,0,0,0-.18.18v1.4a.18.18,0,0,0,.18.18m.18-1.4h.16v1h-.16Z" transform="translate(-267.37 -431.22)"/><path class="cls-1" d="M276.4,455.8h.53a.18.18,0,0,0,.18-.18v-1.4a.19.19,0,0,0-.18-.19h-.53a.19.19,0,0,0-.18.19v1.4a.18.18,0,0,0,.18.18m.18-1.4h.16v1h-.16Z" transform="translate(-267.37 -431.22)"/><path class="cls-1" d="M278.17,451.67h-.52a.18.18,0,0,0-.18.18v1.4a.18.18,0,0,0,.18.18h.52a.18.18,0,0,0,.18-.18v-1.4a.18.18,0,0,0-.18-.18m-.18,1.4h-.16v-1H278Z" transform="translate(-267.37 -431.22)"/><path class="cls-1" d="M278.81,450.94h.52a.19.19,0,0,0,.19-.18v-1.4a.19.19,0,0,0-.19-.18h-.52a.18.18,0,0,0-.18.18v1.4a.18.18,0,0,0,.18.18m.18-1.4h.16v1H279Z" transform="translate(-267.37 -431.22)"/><path class="cls-1" d="M277.55,447a.18.18,0,0,0,.18-.18v-1.12a.18.18,0,0,0-.36,0v1.12a.18.18,0,0,0,.18.18" transform="translate(-267.37 -431.22)"/><path class="cls-1" d="M310.87,450.53l-.61-.16-3-2.76-1.52-4.93v-1.39a.19.19,0,0,0-.19-.18.18.18,0,0,0-.18.18v1c-.11-.09-.24-.2-.36-.32s-.24-.35-.24-.85a2.62,2.62,0,0,1,0-.29c0-.5-.67-1.1-.75-1.16a16.68,16.68,0,0,1-1.54-1.59.21.21,0,0,0-.2-.05.17.17,0,0,0-.12.16,4,4,0,0,0,1.21,3.15,1.29,1.29,0,0,1,.34.92,1.9,1.9,0,0,0,.62,1.21,4.1,4.1,0,0,0,.43.36l0,0h-4.25v-2a1.56,1.56,0,0,0,1.36-1.46v0a.17.17,0,0,0,0-.14l-1.44-3.65v-1a.19.19,0,0,0-.19-.19h0a.19.19,0,0,0-.18.19v.82l-1.18-.21c-.62-.11-.66-.38-.68-.49a.94.94,0,0,0-.75-.82l-1.94-.49a.24.24,0,0,0-.16,0,.23.23,0,0,0-.06.16,1.8,1.8,0,0,0,1.21,1.44c.26.1.35.17.37.54,0,.57.38.66.75.74h0c.58.13,1.37.32,1.58.71a.53.53,0,0,1,0,.46v.1a2.74,2.74,0,0,1-3.84-1.26l-.4-.94V433.9a.2.2,0,0,0-.19-.19.19.19,0,0,0-.18.19v.73l-1.94-.38a.2.2,0,0,0-.15,0,.21.21,0,0,0-.07.14v1.46a.18.18,0,0,0,.15.18l2,.39v0l-2.43,5.64h-1.57a.18.18,0,1,0,0,.36h1.1a.83.83,0,0,0,.2.48l-.51,1.48-.71-.07a.19.19,0,0,0-.2.17.18.18,0,0,0,.17.19l.52,0a3,3,0,0,0-.48,2.71,2.72,2.72,0,0,0,2.27,1.74,1.16,1.16,0,0,1-.13,1,1.79,1.79,0,0,1-1.47.72l0-.74H292a.18.18,0,1,0,0-.36h-.34a1.41,1.41,0,0,0-1.41-1.34,1.48,1.48,0,0,0-.69.18v-6.24a.18.18,0,0,0-.18-.18h-1.08a.18.18,0,0,0-.18.18v1.14h-1.78v-4.18a.19.19,0,0,0-.18-.19h-1.29a.19.19,0,0,0-.18.19v4.14h-.63V443a.18.18,0,0,0-.18-.18H282a.18.18,0,0,0-.18.18v5.24l-.52-.23v-9.64a.45.45,0,0,1,.08-.28.15.15,0,0,1,.12,0H283c.67,0,.82-.2.95-.48l0-.09c.08-.16.29-.17.55-.17h1.23a.71.71,0,0,0,.81-.88.26.26,0,0,1,.05-.2.44.44,0,0,1,.3-.13c.13,0,.44,0,.92,0h.54a7.67,7.67,0,0,0,2.69-.31,1.29,1.29,0,0,0,1-1,.17.17,0,0,0-.05-.15.17.17,0,0,0-.14-.06,6.72,6.72,0,0,1-2.69-.27c-.85-.33-1.15-.13-1.47.09l-.21.12a3.14,3.14,0,0,1-1.65.07,1.63,1.63,0,0,0-1.53.25.8.8,0,0,0-.13,1,.88.88,0,0,1,.05.15.17.17,0,0,1,0,.12.21.21,0,0,1-.15.05,1.81,1.81,0,0,1-.55-.14l-.15,0a1,1,0,0,0-1.18.32c-.2.35-.33.47-.53.47h-.86a.86.86,0,0,0-.67.28,2,2,0,0,0-.38,1.3l-.31,8.82-.9-.41v-1.11l.48.48a.18.18,0,0,0,.26-.26l-1.67-1.67a.19.19,0,0,0-.26,0l-1.69,1.69a.18.18,0,1,0,.26.25l.48-.48v1.19l-1.19.81,0,0-.76.52v-2.84s0-.25.39-.25c.68,0,1.12-.31,1.12-.81,0-.1,0-.22,0-.34v-.34a.54.54,0,0,1,.27-.48,2.39,2.39,0,0,1,.75-.3.89.89,0,0,0,.87-.83c0-.16,0-.4,0-.74,0-.18,0-.38,0-.61,0-.5,0-.52.48-.75h0a1.54,1.54,0,0,0,1-1.28c0-.45.05-.89.05-.89a.17.17,0,0,0-.07-.14.17.17,0,0,0-.15,0,1.26,1.26,0,0,0-1.12.73,1,1,0,0,1-.65.39,1.14,1.14,0,0,0-.82,1.33v0a.94.94,0,0,1-.43.89c-.18.12-.75.48-1.18.73a1.2,1.2,0,0,0-.65,1s0,.07,0,.11a.85.85,0,0,1-.15.65l-.65.64a1.74,1.74,0,0,0-.41,1.25l-.31,5.44-1.84.46a.18.18,0,0,0,0,.35h0l2-.49h0l2.1-.52v10.29L275,461l-1.31-1.92a.19.19,0,0,0-.25-.05l-2,1.39a.17.17,0,0,0-.05.25l1.27,2-.77.51a.17.17,0,0,0-.05.25l1.14,1.74a.2.2,0,0,0,.12.08h0l.11,0,.74-.51.31.47a.16.16,0,0,0,.13.08,8,8,0,0,1,.92.22,2.3,2.3,0,0,0-.27.8,2.76,2.76,0,0,0,1.16,2.58,3.9,3.9,0,0,0,2.23.78,3.78,3.78,0,0,0,.76,1.34,3,3,0,0,0,2.12.82h.09l.27,0a2.7,2.7,0,0,0,1.31,1.13,3.37,3.37,0,0,0,1.34.29,3.94,3.94,0,0,0,2.05-.63.56.56,0,0,0,.28-.38.44.44,0,0,0-.12-.39.54.54,0,0,0-.75,0,2.55,2.55,0,0,1-2.64.11,1.5,1.5,0,0,1-.52-.41,2.51,2.51,0,0,0,.87-.62,1.34,1.34,0,0,0,.38-1.07,1.3,1.3,0,0,0-.54-.91,1.18,1.18,0,0,0-.94-.17,1.38,1.38,0,0,0-.87.69,2,2,0,0,0-.21,1.29,2,2,0,0,1-1.25-.51,2.33,2.33,0,0,1-.42-.69,4.2,4.2,0,0,0,2.34-1.37,2.3,2.3,0,0,0,.54-1.56,1.94,1.94,0,0,0-.52-1.35,2,2,0,0,0-2.74.25,2.6,2.6,0,0,0-.64.82l-.95-1.38.07,0,.18-.07c1.22-.47,3.26-1.25,3.79-3.27a4.36,4.36,0,0,0,.69-.38,4.14,4.14,0,0,0,1.73-2.94,3.65,3.65,0,0,0,1-.47,2.85,2.85,0,0,0,.63.78,3.73,3.73,0,0,0-.52.45l-.14.13a.2.2,0,0,0,0,.23l.39.65c-.11.12-.22.24-.32.37l-.73-.27a.17.17,0,0,0-.21.06,7.12,7.12,0,0,0-.68,1.12.18.18,0,0,0,0,.22l.59.49c-.07.16-.13.32-.19.48h-.78a.17.17,0,0,0-.17.13,6.8,6.8,0,0,0-.25,1.27.18.18,0,0,0,.12.19l.71.26c0,.14,0,.28,0,.42v.14l-.73.26a.16.16,0,0,0-.12.18,7.69,7.69,0,0,0,.2,1.26.18.18,0,0,0,.17.14h.77c.05.19.12.37.19.56l-.6.49a.2.2,0,0,0-.05.22,8.3,8.3,0,0,0,.62,1.09.18.18,0,0,0,.21.07l.72-.26a5.71,5.71,0,0,0,.39.47l-.39.67a.18.18,0,0,0,0,.22,7.38,7.38,0,0,0,.95.81.17.17,0,0,0,.23,0l.58-.49a4.71,4.71,0,0,0,.6.36,2.94,2.94,0,0,0,1.78,2.48h.06l.1,0a.18.18,0,0,0,.08-.13l0-.23a.19.19,0,0,0-.05-.14,2.88,2.88,0,0,1-.67-1.79,1.51,1.51,0,0,1,.8-1.31l.26-.15.18,4.41a.17.17,0,0,0,.13.16.93.93,0,0,0,.31,0,1.2,1.2,0,0,0,.31,0,.2.2,0,0,0,.13-.17l.17-4.44.34.18a1.54,1.54,0,0,1,.8,1.32,2.93,2.93,0,0,1-.68,1.79.18.18,0,0,0,0,.14l0,.22a.19.19,0,0,0,.09.14l.09,0h.07a2.91,2.91,0,0,0,1.77-2.38,6.47,6.47,0,0,0,.88-.49l.59.49a.18.18,0,0,0,.22,0,8.49,8.49,0,0,0,1-.84.18.18,0,0,0,0-.22l-.39-.67.35-.43.71.26a.17.17,0,0,0,.21-.07,8.34,8.34,0,0,0,.63-1.13.18.18,0,0,0-.05-.21l-.6-.5a4.83,4.83,0,0,0,.16-.5h.77a.18.18,0,0,0,.17-.14,7,7,0,0,0,.2-1.3.17.17,0,0,0-.12-.18l-.73-.26v-.1c0-.13,0-.26,0-.38l.72-.26a.18.18,0,0,0,.12-.19,8.41,8.41,0,0,0-.25-1.31.19.19,0,0,0-.18-.13H297c0-.14-.1-.28-.16-.42l.59-.49a.19.19,0,0,0,.05-.21,8.45,8.45,0,0,0-.69-1.16.19.19,0,0,0-.21-.06l-.73.27c-.09-.11-.18-.22-.28-.32l.39-.67a.18.18,0,0,0,0-.22,7.19,7.19,0,0,0-.83-.72,2.6,2.6,0,0,0,.92-1.61,2.19,2.19,0,0,0-1.6-2.64,2.44,2.44,0,0,0-2.38.56,1.06,1.06,0,0,0-.19,1.46c.25.37.73.42,1.42.13a.53.53,0,0,1,.51,0,.32.32,0,0,1,.12.29c0,.36-.54.56-1.5.93l-.89.34c-.11,0-.22.08-.33.12l.12-4.62a.78.78,0,0,0,.42.11,1.06,1.06,0,0,0,.59-.19l.06,0a1.69,1.69,0,0,0,1.2.46,2.54,2.54,0,0,0,1-.21,1.76,1.76,0,0,0,.88.23,2.61,2.61,0,0,0,1.29-.38,1.54,1.54,0,0,0,.83.23,2,2,0,0,0,1.23-.44,1.93,1.93,0,0,0,1.25.44,2.78,2.78,0,0,0,1.21-.29.19.19,0,0,0,.09-.12.21.21,0,0,0,0-.15c-.16-.2-.44-.57-.81-1V449.4h.56a1.43,1.43,0,0,0,.16.48,1.07,1.07,0,0,0,.66.5l.28,0a1.05,1.05,0,0,0,.65-.21,1.37,1.37,0,0,0,.67.95l-2.91,4.26a2.07,2.07,0,1,0-1.91,2.84,2.25,2.25,0,0,0,.64-.1l-1.48,1.27a.64.64,0,0,0-.07.9l.06.07a.65.65,0,0,0,.9.07l1.3-1.12.63.77a2.66,2.66,0,0,0,0,2.85,3.39,3.39,0,0,0,2.06,1.15,2.24,2.24,0,0,1,1.35,1,2,2,0,0,1-1.59-.17l.45-.37a.18.18,0,0,0,.06-.17.21.21,0,0,0-.12-.14l-3.76-1.39a.19.19,0,0,0-.19,0,.2.2,0,0,0,0,.2l1.24,3.3a1.4,1.4,0,0,0-.85.41,1.67,1.67,0,0,0,.08,2.3A3.35,3.35,0,0,0,301,470a2.64,2.64,0,0,1-.23.29,1.56,1.56,0,0,1-1.07.51,1.8,1.8,0,0,0-.09-1.31v0a1.42,1.42,0,0,0-.92-.67,1.15,1.15,0,0,0-.89.17,1.28,1.28,0,0,0-.52.85,1.4,1.4,0,0,0,.36,1.12h0a2.79,2.79,0,0,0,.62.48,2.46,2.46,0,0,1-.66.47,2.63,2.63,0,0,1-2.65-.12.5.5,0,0,0-.69.1.42.42,0,0,0-.07.34.72.72,0,0,0,.28.39,3,3,0,0,0,1.8.6,3.76,3.76,0,0,0,1.49-.33,3.28,3.28,0,0,0,1.47-1.12l.36,0a2.76,2.76,0,0,0,2-.84,2.4,2.4,0,0,0,.59-.87,3.66,3.66,0,0,0,2.27-1.05,3.89,3.89,0,0,0,1.15-2.45c.22-.11.45-.25.69-.39a.93.93,0,0,1,1.21.25.18.18,0,0,0,.26,0,.2.2,0,0,0,.07-.16.17.17,0,0,0-.05-.15l-.11-.13a.88.88,0,0,1,0-1.1c1.58-1.91,1.81-3.5.75-5.13l.56-.44a.17.17,0,0,0,.07-.16.19.19,0,0,0-.09-.15l-3.29-1.74,0-5.85a1.54,1.54,0,0,0,.75.46,1.65,1.65,0,0,0,.38.05,1.48,1.48,0,0,0,1.12-.51l.05.1a1.07,1.07,0,0,0,.66.49,1.37,1.37,0,0,0,.31,0,1.62,1.62,0,0,0,1.53-1.32l.36.09h.05a.18.18,0,0,0,.17-.14.17.17,0,0,0-.13-.22m-1.35-.35-1.61-.4-.46-1.48Zm-5-1.28h0a4.74,4.74,0,0,1-.55-1.61l1.43-.7v2.55Zm-.47-.12-2.07-.52,1.64-.81a5.14,5.14,0,0,0,.43,1.33m1.11-4.62a1.39,1.39,0,0,1,.23.93v1.08l-1.46.72a3.73,3.73,0,0,1,1.23-2.73m.59,2.54,1.21,1.11.58,1.86-1.79-.45Zm1,.42-1-.91V445.1h0v-1.18Zm-2.16-3.94a1.56,1.56,0,0,1-.5-1,1.66,1.66,0,0,0-.48-1.19,3.4,3.4,0,0,1-1.07-2.37,16.27,16.27,0,0,0,1.25,1.25,1.93,1.93,0,0,1,.63.9v.29c0,.52,0,.78.36,1.11s.5.43.61.52h0v1.14a1.93,1.93,0,0,0-.4-.35c-.13-.1-.26-.21-.4-.34m0,1a3.88,3.88,0,0,0-1,2.86l-2.14,1.05-.88-.22v-3.69Zm-6.35,0H300l-1.63,4.72c-1.67-1.73-1.29-3.16-.16-4.72m1.94-2.37v2h-1.69l1.43-2.05.27,0m0,3.07V449l-1.42,0Zm.1-3.43a1.24,1.24,0,0,1-1.23-.94h2.48a1.25,1.25,0,0,1-1.25.94m-.17-4.24v2.93h-1Zm1.4,2.93h-1v-2.63Zm-3.73-3.24h0c-.36-.09-.45-.11-.46-.41a.83.83,0,0,0-.62-.86,1.44,1.44,0,0,1-.9-.87l1.64.41a.59.59,0,0,1,.48.52c.06.43.38.69,1,.8l1,.18-.37,1a3.08,3.08,0,0,0-1.76-.81M296.62,439a2.85,2.85,0,0,0,1.17.24,4.09,4.09,0,0,0,1.29-.23l-.41,1.17v.18a1.51,1.51,0,0,0,.89,1.32L298,443.85h-1.3a.18.18,0,0,0,0,.36h1.07a7.17,7.17,0,0,0-.46.75l-2.32-.2v-1a1.46,1.46,0,0,0,1.12-.83,1,1,0,0,0,.77.38,1,1,0,0,0,1-.84h.93a.18.18,0,0,0,0-.36h-1.33l-1.52-3.55a3,3,0,0,0,.68.43m-2.24,7.75a1.58,1.58,0,0,0-1.45.57.87.87,0,0,0-.15.27l-1-2.76,2.84.26v1.72a1.31,1.31,0,0,0-.27-.06m-2.59-2.28.44-1.27a.87.87,0,0,0,.45.12,1,1,0,0,0,.77-.38,1.46,1.46,0,0,0,1.2.84v.94Zm3.21-7.16.08.17.75,1.76H295Zm.85,2.3a1.07,1.07,0,0,1-2.05,0Zm-.84,1.12a1.5,1.5,0,0,0,1.11-.81l.94,2.2H295Zm2.48,1.75a.58.58,0,0,1-.59.47.59.59,0,0,1-.59-.47Zm-1.61,0a1.1,1.1,0,0,1-2.17,0Zm-3-6.74v-1.09l1.79.35v1.09Zm1.79,3.5h-.8l.8-1.85Zm-1.09.69a1.48,1.48,0,0,0,1.11.8v1.39h-2.06Zm-.27,2.55a.61.61,0,0,1-1.18,0Zm-2.21,4.89a2.6,2.6,0,0,1,.42-2.36l1.28,3.63.06.18a2.32,2.32,0,0,1-1.76-1.45m.23,2.49h-2.1a1.05,1.05,0,0,1,2.1,0m-2.59,4.94a2.47,2.47,0,0,0-2.39-.57,2.12,2.12,0,0,0-1.51,2.27l-.47.32a2,2,0,0,1-2.05.16,1.07,1.07,0,0,1-.36-.34l4.06-3,0,0a2.47,2.47,0,0,0,.94.2,1.69,1.69,0,0,0,1.2-.46l.06,0a1.18,1.18,0,0,0,.66.22.77.77,0,0,0,.4-.1l.14,4.51-.16-.06-.9-.33c-1-.37-1.47-.58-1.5-.93a.3.3,0,0,1,.11-.3.55.55,0,0,1,.52,0c.68.28,1.16.23,1.42-.14a1.06,1.06,0,0,0-.19-1.45m-6.91,1.44a.5.5,0,0,1,.22-.43.35.35,0,0,1,.41,0l-.63.46Zm1.17-10-.23.34v-.68Zm-.23,1.3.2.29-.2.3Zm.11-.48.34-.5.32.46-.35.49Zm.77.43v.68l-.23-.34Zm-.21-1.25.21-.3v.6Zm-.22-.32-.22-.33h.45Zm0,2.23.21.31-.33.3-.23-.1Zm1.3-.14.07,0a4.32,4.32,0,0,1,1.69-.87,1.11,1.11,0,0,1,1.08,1.78,1.54,1.54,0,0,0,.08,1.54,2.18,2.18,0,0,0,1.81.91l.06,1.73,0,0c-.21.29-.57.21-.83,0a.61.61,0,0,1-.25-.39.63.63,0,0,1,.11-.48l0-.11a.21.21,0,0,0-.08-.15.18.18,0,0,0-.25,0,.65.65,0,0,1-1.14-.26.61.61,0,0,1,.11-.47.18.18,0,0,0-.27-.24.65.65,0,0,1-.9,0,.61.61,0,0,1-.15-.43.67.67,0,0,1,.22-.46.18.18,0,0,0-.23-.28.64.64,0,0,1-.88-.14.5.5,0,0,1,0-.75l0-.06a.18.18,0,0,0,0-.25.19.19,0,0,0-.26,0l-.06.06L281.24,452a.18.18,0,0,0,0,.25.19.19,0,0,0,.26,0l2.71-2.76a1.1,1.1,0,0,0,.17.37l-2.76,3a1.81,1.81,0,0,1-2,.3,29.78,29.78,0,0,1,4.81-5.16m.22-.6-.11.07v-2.65h.11Zm3.34,3.16a1.46,1.46,0,0,1-.34-.36,1.16,1.16,0,0,1-.05-1.18,1.59,1.59,0,0,0,0-1.72,1.19,1.19,0,0,0-.19-.2v-2.28h.6Zm-1-3.69a1.79,1.79,0,0,0-.73-.16v-1.89h.73Zm0,5.65a1.06,1.06,0,0,0,.76,0,1.21,1.21,0,0,0,0,.19.84.84,0,0,0,.12.31,1.53,1.53,0,0,1-1.6.27l.15-.16.56-.66m-2.4-2.42a1,1,0,0,0,.5.2l-1.94,2.07a.18.18,0,0,0,0,.25.16.16,0,0,0,.12.05.24.24,0,0,0,.14-.05l1.81-1.94a.9.9,0,0,0,.17.47l-1.52,1.76A1.43,1.43,0,0,1,282,453Zm-.45,3.06h0l1.52-1.75a.93.93,0,0,0,.58.16l-1,1.12a.18.18,0,0,0,0,.25.21.21,0,0,0,.12.05.2.2,0,0,0,.14-.06l.91-1a.92.92,0,0,0,.24.43c-.13.14-.4.47-.54.63a1.63,1.63,0,0,1-2.07.28Zm5-2.21a2.41,2.41,0,0,1-.79-.18v-.57h.77Zm-.89-7a.18.18,0,0,0,.18-.18v-1.14h.72V449a1.45,1.45,0,0,0-.36.87h-.44v-5.2a.18.18,0,0,0-.18-.18h-1.88V444ZM286,439.6v7.19a3.62,3.62,0,0,0-.93.4V439.6Zm-3.8,3.56h1.52v.58a.18.18,0,0,0,.18.18h.81v.56h-.29a.18.18,0,0,0-.18.18v3.1a2.11,2.11,0,0,0-.23.19v-2.53a.18.18,0,0,0-.18-.18h-1.24a.19.19,0,0,0-.19.18v3.05l-.19-.09Zm-1.7-5.85a.55.55,0,0,1,.41-.17h.87c.43,0,.66-.34.84-.66s.48-.24.74-.15l.15.05a2.06,2.06,0,0,0,.67.16.57.57,0,0,0,.44-.19.49.49,0,0,0,.06-.44l-.06-.17c-.09-.25-.13-.39.05-.58s.82-.22,1.2-.15a3.45,3.45,0,0,0,1.89-.1,1.28,1.28,0,0,0,.23-.14c.29-.19.48-.31,1.14-.05a6.56,6.56,0,0,0,2.57.31,1.15,1.15,0,0,1-.66.45,7.39,7.39,0,0,1-2.58.3h-1.49a.79.79,0,0,0-.55.25.62.62,0,0,0-.13.48.53.53,0,0,1-.06.37.5.5,0,0,1-.38.1h-1.24c-.26,0-.69,0-.87.36l0,.11c-.08.18-.13.28-.6.27h-1.58a.52.52,0,0,0-.38.15.73.73,0,0,0-.17.37h-.73a1.47,1.47,0,0,1,.27-.87m-.28,1.23h.73v9.27l-1-.47Zm-6.31,5.85.64-.64a1.19,1.19,0,0,0,.26-.92v-.1a.79.79,0,0,1,.47-.72l1.2-.75a1.27,1.27,0,0,0,.58-1.19V440c0-.46,0-.85.55-1a1.29,1.29,0,0,0,.87-.57c.22-.36.33-.44.65-.51,0,.16,0,.4,0,.64a1.2,1.2,0,0,1-.78,1h0c-.51.25-.66.35-.68,1.06,0,.23,0,.43,0,.61s0,.57,0,.73-.12.42-.57.49a2.54,2.54,0,0,0-.87.35.91.91,0,0,0-.45.79V444c0,.13,0,.25,0,.35,0,.33-.41.45-.76.45a.7.7,0,0,0-.69.39l-.63,0a1.29,1.29,0,0,1,.31-.8m-.32,1.17.57,0v5l-.86.22Zm.94,4.86v-1.75h0l.72-.49v2.06Zm1.08-2.49v0l1.19-.8a.19.19,0,0,0,.08-.15v-1.65l.72-.71.7.7v1.59a.17.17,0,0,0,.11.16l4.39,2a38.58,38.58,0,0,0-3.53,4.09.17.17,0,0,0,0,.15.2.2,0,0,0,.1.12,2.73,2.73,0,0,0,1.2.28,1.92,1.92,0,0,0,1.25-.43,2.07,2.07,0,0,0,1.24.44,1.53,1.53,0,0,0,.82-.23,2.61,2.61,0,0,0,1.29.38h0l-1.65,1.21a1.61,1.61,0,0,0-2.9,1,2.26,2.26,0,0,0,.21,1l-.21.14a3.25,3.25,0,0,0-1.68-.87,2.38,2.38,0,0,0-2.4,1,2.87,2.87,0,0,0-.32,2.35,3.68,3.68,0,0,0,.15.47l-.72.51Zm5.1,11.93a3.19,3.19,0,0,1,0,.54,1.82,1.82,0,0,1,0,.32,4.47,4.47,0,0,1-1.44.07Zm.33-.21.41-.27a4.21,4.21,0,0,1,.12,1,2.52,2.52,0,0,1-.47.22,1.27,1.27,0,0,0,0-.2,3.67,3.67,0,0,0-.07-.75m.89.47a4.39,4.39,0,0,0-.16-.95l1.1-.72a2.51,2.51,0,0,1-.55,1.29,2.33,2.33,0,0,1-.39.38m-3.19.6a1.87,1.87,0,0,1-1.16-1l3.39-2.32a2.28,2.28,0,0,0,1.38,1Zm-1.35-2a1.19,1.19,0,0,1,1.11-1.13,1.64,1.64,0,0,1,1,.31l-2.09,1.44a2.07,2.07,0,0,1-.07-.62m-.9,1.74a2.9,2.9,0,0,0,1,1.08l-1.43,1-.82-1.21Zm-.2,2.36,1.6-1.1a4.07,4.07,0,0,0,1.64.33,4.68,4.68,0,0,0,.66,0,5.34,5.34,0,0,1-2.45,1.59l-.17.06a4.41,4.41,0,0,0-.54.24Zm-3.09,2-.94-1.43.61-.41.93,1.43Zm9.83,7.44a2.91,2.91,0,0,0,3-.13h0s.19-.14.26-.07,0,.08,0,.09-.06.1-.1.13a3.25,3.25,0,0,1-3.07.32,2.45,2.45,0,0,1-1.06-.86l.21-.06a1.86,1.86,0,0,0,.71.59m-3.17-1.77a2.37,2.37,0,0,0,1.66.62h0a2.2,2.2,0,0,0,1.55-.6.64.64,0,0,0,0-.88.54.54,0,0,0-.47-.19.63.63,0,0,0-.49.33,1.53,1.53,0,0,0-.18.93l-.24,0a1.66,1.66,0,0,1,.16-1.11,1,1,0,0,1,.63-.5.8.8,0,0,1,.66.11,1,1,0,0,1,.38.65,1,1,0,0,1-.29.79,2.54,2.54,0,0,1-1.83.78,2.64,2.64,0,0,1-1.94-.71,3.37,3.37,0,0,1-.64-1.09l.46,0a2.59,2.59,0,0,0,.54.88m2.6-.53a.29.29,0,0,1,.21-.16h0a.23.23,0,0,1,.16.08.3.3,0,0,1,0,.38,1.74,1.74,0,0,1-.52.34,1.13,1.13,0,0,1,.13-.64m-2.91-4.18h0a1.68,1.68,0,0,1,2.24-.25,1.92,1.92,0,0,1,0,2.41,4,4,0,0,1-3.11,1.36,3.56,3.56,0,0,1-2.16-.71,2.39,2.39,0,0,1-1-2.23,2.23,2.23,0,0,1,.26-.75l.51.19a1.85,1.85,0,0,0-.21.64,1.9,1.9,0,0,0,.88,1.8,3.25,3.25,0,0,0,1.91.57,3.46,3.46,0,0,0,2.64-1.15,1.46,1.46,0,0,0,.35-1.16,1,1,0,0,0-.37-.7c-.48-.32-1.1-.15-1.67.44a2.72,2.72,0,0,0-.7,2.2,2,2,0,0,1-.42,0,3.16,3.16,0,0,1,.92-2.66m.46.7a1.3,1.3,0,0,1,.89-.48.62.62,0,0,1,.32.09.64.64,0,0,1,.21.44,1.08,1.08,0,0,1-.26.88,3,3,0,0,1-1.76,1,2.38,2.38,0,0,1,.6-1.91m-1.58.44a4.19,4.19,0,0,0-.16,1.48,2.65,2.65,0,0,1-1.17-.47,1.55,1.55,0,0,1-.73-1.46,1.75,1.75,0,0,1,.18-.53,7.49,7.49,0,0,1,1.62,1,.16.16,0,0,0,.11.05.28.28,0,0,0,.12,0Zm-.15-.35a8.3,8.3,0,0,0-3.71-1.64l-.33-.52,0-.06,0,0-2.36-3.64,1.74-1.18,4.8,7Zm-.44-2.06-.18.07-.15.06-.27-.41.46-.2.16-.06a5.11,5.11,0,0,0,2.82-2c.23-.06.44-.12.64-.19-.59,1.64-2.39,2.33-3.48,2.75m4.41-3.61a4.61,4.61,0,0,1-4.45.41,2.64,2.64,0,0,1-1.27-1.71,2.54,2.54,0,0,1,.27-2.06,1.91,1.91,0,0,1,2.06-.82,2.77,2.77,0,0,1,1.41.71l-.4.28a2,2,0,0,0-1.38-.45,1.53,1.53,0,0,0-1.46,1.48,2.25,2.25,0,0,0,1.84,2.38,5.81,5.81,0,0,0,.9.07,3.52,3.52,0,0,0,2.82-1.2,2.75,2.75,0,0,0,.64-1.55,3.43,3.43,0,0,0,.56-.07,3.73,3.73,0,0,1-1.54,2.53m-.47-3.18a2,2,0,0,1-.84-1.62,1.36,1.36,0,0,1,.62-1.16,1.31,1.31,0,0,1,1.63.35l-.43.31a.74.74,0,0,0-.92-.09.85.85,0,0,0-.38.74,1.26,1.26,0,0,0,.66,1.05,1.87,1.87,0,0,0,1,.27,2.86,2.86,0,0,0,1.33-.36l0,0,.38-.26,0,.1a2.09,2.09,0,0,0,.11.43,3,3,0,0,1-3.22.27m3.46-.76a1.91,1.91,0,0,1,1.2-2.37,2.09,2.09,0,0,1,2,.47c.43.45.31.77.15,1s-.48.22-1,0a.94.94,0,0,0-.88.08.69.69,0,0,0-.26.62c.06.6.73.85,1.74,1.23l.9.35,1.18.44.06,0,1.88.71.38.19h0a2.2,2.2,0,0,1,1.32,1.93,2.16,2.16,0,0,1-1.45,1.92l-.1-.05-1.52-.63.79-.31a1.12,1.12,0,0,0,.8-1c0-.4-.32-.74-.85-.94-1.22-.46-2.49-.91-3.25-1.18l-.6-.22c-1.58-.58-2.36-1.28-2.54-2.29m7.61,12a4.81,4.81,0,0,0,2.44-3.58.18.18,0,0,0,0-.14.2.2,0,0,0-.14-.06h-1a2.09,2.09,0,0,0-.51-.87h1.53a.2.2,0,0,0,.14-.06.19.19,0,0,0,0-.15,4.5,4.5,0,0,0-1-2.29,1,1,0,0,0,0-.17,2.1,2.1,0,0,0-.27-1.07,5.49,5.49,0,0,1-.85,9,3.16,3.16,0,0,0-.35-.59M289.63,465v.15h-.35l.09,0,.26-.11m-1,.78a.54.54,0,0,1,.11-.27h.89l0,1.35-.51-.28a1,1,0,0,1-.53-.8m1.4,1.28-.06-2.21.36-.14.31.12-.06,2.3-.08,0-.13.07h0l-.15-.07-.19-.11m.95-1.55h1a.55.55,0,0,1,.12.27,1,1,0,0,1-.54.81l-.61.34Zm0-.36V465l.37.15.08,0Zm.77,1.74a1.32,1.32,0,0,0,.7-1.15c0-.27-.22-.66-1-1l-1.7-.65-1.44-.55a2.27,2.27,0,0,1-1.52-1.87,2.13,2.13,0,0,1,1.2-2l.16.06,1.63.58-.27.1-.42.16c-.54.2-.85.54-.85.94a1.1,1.1,0,0,0,.79,1c.72.29,2.21.88,3.13,1.27a2.09,2.09,0,0,1,1.54,2.06,2.68,2.68,0,0,1-1.59,2.06l-.3.15-.12-.07c-.24-.15-.61-.35-1-.56.56-.3.91-.49,1-.56m-3.53,1.65a4.33,4.33,0,0,1-2.14-3h.52a2.26,2.26,0,0,0,0,.37,2.94,2.94,0,0,0,1.79,2.36l.12.07a2.15,2.15,0,0,0-.28.23m-1.56-3.39h-.79a.16.16,0,0,0-.13.06.19.19,0,0,0,0,.14,4.74,4.74,0,0,0,2.27,3.46,2.43,2.43,0,0,0-.37.59,5.47,5.47,0,0,1-1-8.54,2.32,2.32,0,0,0-.11.87,1.6,1.6,0,0,0,0,.23,5,5,0,0,0-.82,2.11.2.2,0,0,0,0,.15.16.16,0,0,0,.13.06h1.27a2,2,0,0,0-.48.87m.89-1.23h-1.46a4.53,4.53,0,0,1,.55-1.49,2.66,2.66,0,0,0,1.21,1.3l-.3.19m3.89-2.95c.39.14.61.36.61.6s-.22.49-.56.63l-.43.17,0-1.53.34.13m-.74,1.55-.09,0-.26.11-.47-.19-.06-1.71.53-.19.4.14Zm-1.23-1.62,0,1.42-.29-.12c-.35-.14-.57-.38-.57-.63s.23-.45.61-.6l.21-.07m4.69,1.35a4.24,4.24,0,0,1,.68,1.67h-1.72l-.27-.18a2.61,2.61,0,0,0,1.31-1.49m-1.83,6a3,3,0,0,0,1.79-2.36c0-.13,0-.26,0-.38h.73a4.44,4.44,0,0,1-2.29,3.13,3.73,3.73,0,0,0-.36-.32l.14-.07m-5.75,1.95-.58.49a6.5,6.5,0,0,1-.69-.59l.38-.66a.18.18,0,0,0,0-.21q-.29-.32-.54-.66a.18.18,0,0,0-.21-.06l-.71.26c-.16-.26-.31-.52-.45-.8l.59-.49a.19.19,0,0,0,.06-.21,5.41,5.41,0,0,1-.27-.77.19.19,0,0,0-.18-.14h-.75a7.5,7.5,0,0,1-.15-.93l.73-.26a.19.19,0,0,0,.12-.18c0-.08,0-.16,0-.25a4.84,4.84,0,0,1,0-.53.21.21,0,0,0-.12-.19l-.72-.25c.05-.32.11-.63.19-.94h.77a.17.17,0,0,0,.17-.13,6,6,0,0,1,.28-.7.19.19,0,0,0,0-.21l-.58-.48a7.61,7.61,0,0,1,.5-.83l.73.26a.16.16,0,0,0,.2-.06c.15-.18.31-.36.47-.53a.18.18,0,0,0,0-.22l-.38-.66,0,0a3.21,3.21,0,0,1,.55-.48,6.64,6.64,0,0,0,1.58.79h0a2.3,2.3,0,0,0-.34.28l-.05,0a5.85,5.85,0,0,0,.23,9.87,3.18,3.18,0,0,0-.13.77,5.22,5.22,0,0,1-.52-.33.18.18,0,0,0-.22,0m2.68-.72a1.86,1.86,0,0,0-1,1.62,3.07,3.07,0,0,0,.57,1.76,2.46,2.46,0,0,1-1.17-2,2.53,2.53,0,0,1,1.19-2.33l.76.4.36.19-.2.1-.52.29m1.14,4.41h-.16l-.18-4.43.31-.16.21.11Zm1.47-1a3.22,3.22,0,0,0,.56-1.78,1.88,1.88,0,0,0-1-1.62c-.25-.15-1-.53-1.66-.89l-1.24-.66a2.68,2.68,0,0,1-1.6-2.06,1.91,1.91,0,0,1,1.32-1.93c.41.17.89.35,1.4.54l.15,0-.26.11-.35.14c-.74.3-.92.69-.95,1a1.3,1.3,0,0,0,.69,1.14c.11.08.49.28,1.09.61s1.17.63,1.52.83a2.75,2.75,0,0,1,1.47,2.5,2.45,2.45,0,0,1-1.16,2.05m3.7-13.51-.38.66a.2.2,0,0,0,0,.22,5,5,0,0,1,.43.49.18.18,0,0,0,.21.06l.72-.26a6.78,6.78,0,0,1,.52.86l-.59.48a.2.2,0,0,0,0,.22c.09.2.18.42.25.63a.17.17,0,0,0,.17.13h.77a6.65,6.65,0,0,1,.19,1l-.71.26a.17.17,0,0,0-.12.18c0,.17,0,.34,0,.5a1.62,1.62,0,0,1,0,.22.17.17,0,0,0,.12.17l.73.26a7.39,7.39,0,0,1-.15,1H297a.21.21,0,0,0-.18.13,4.56,4.56,0,0,1-.24.71.17.17,0,0,0,.06.21l.59.5c-.14.28-.29.56-.46.83l-.71-.26a.19.19,0,0,0-.21.06,7.42,7.42,0,0,1-.49.62.17.17,0,0,0,0,.21l.38.66a6.89,6.89,0,0,1-.7.62l-.58-.49a.18.18,0,0,0-.22,0,6.22,6.22,0,0,1-.79.47,2.82,2.82,0,0,0-.13-.76,5.84,5.84,0,0,0-.08-10.3,7.75,7.75,0,0,0,1.62-.85,7.19,7.19,0,0,1,.77.65m-3.94-1,.9-.34c1-.38,1.67-.64,1.73-1.23a.65.65,0,0,0-.26-.62.92.92,0,0,0-.87-.08c-.51.21-.84.2-1,0s-.28-.55.15-1a2.08,2.08,0,0,1,2-.46,1.82,1.82,0,0,1,1.33,2.23c-.17.95-.7,1.67-2.93,2.54-.12-.07-.26-.13-.39-.19l-1.46-.56.75-.28m-1.27.09-.62-.24-.22-7v-.07l0-.89h1.53l-.21,8-.45.17m2.25-5.33a1,1,0,0,0,.11-.31,1.21,1.21,0,0,0,0-.19,1,1,0,0,0,.77-.06l.55.67.15.16a1.51,1.51,0,0,1-1.59-.27m1.71-.13-.53-.64a1,1,0,0,0,.23-.42l.91,1a.2.2,0,0,0,.14.06.21.21,0,0,0,.12-.05.19.19,0,0,0,0-.25l-1-1.12a1,1,0,0,0,.59-.16l1.51,1.75h0l.05.06a1.63,1.63,0,0,1-2.07-.28m2.28,0-1.52-1.76a.9.9,0,0,0,.17-.47l1.81,1.94a.24.24,0,0,0,.14.05.15.15,0,0,0,.12-.05.18.18,0,0,0,0-.25l-1.94-2.07a.9.9,0,0,0,.51-.22l2.61,2.9a2,2,0,0,1-.57.28,1.3,1.3,0,0,1-1.34-.35m2.29-.05-2.74-3.05a1.11,1.11,0,0,0,.15-.36l2.72,2.77a.18.18,0,0,0,.25-.25l-3.25-3.32,0,0a.18.18,0,0,0-.25,0,.17.17,0,0,0,0,.25l0,0a.52.52,0,0,1,0,.79.64.64,0,0,1-.88.14.18.18,0,0,0-.23.28.6.6,0,0,1,.22.46.57.57,0,0,1-.15.43.65.65,0,0,1-.9,0,.18.18,0,0,0-.24,0,.18.18,0,0,0,0,.24.61.61,0,0,1,.11.47.65.65,0,0,1-1.14.26.18.18,0,0,0-.25,0,.21.21,0,0,0-.08.15l0,.11a.63.63,0,0,1,.11.48.61.61,0,0,1-.25.39.56.56,0,0,1-.8-.07l0-1.72a2.13,2.13,0,0,0,1.79-.89,1.56,1.56,0,0,0,.07-1.55c-.05-.11-.09-.22-.13-.33h0v0a1.08,1.08,0,0,1,.12-1,1.27,1.27,0,0,1,1.1-.44c1.66.28,4.54,3.4,6.57,6.08a1.83,1.83,0,0,1-2-.3m1.23-1.22c-1.35-1.63-3.48-4-5.14-4.72v-1.82l2.16.19c-.48,1.19-.42,2.54,1.13,4.06a.21.21,0,0,0,.13.05h1.72Zm.37-3.39.63.16a3.64,3.64,0,0,0-.09.6h-.54Zm3.37,3a1.28,1.28,0,0,0,.38.05,1.47,1.47,0,0,0,1-.38v3l-2.19-1.56.78-1.14Zm2.45,13.33L302.27,460c.12-.13.25-.24.36-.34l3.59,4.05a.16.16,0,0,0,.13.06.19.19,0,0,0,.13-.05,2.5,2.5,0,0,0,.55-3,.2.2,0,0,0-.13-.09.17.17,0,0,0-.15.05l-.37.34-.64-2.79a9.48,9.48,0,0,1,1.89,2.74c.15.45.48,2-1.29,3.71m-2.39-4-1-1.16c.51-.34.93-.37,1.25-.09a.56.56,0,0,1,.22.44,1.35,1.35,0,0,1-.45.81m-2.46-1.52-.49-.58.36-.31.48.58a4.6,4.6,0,0,0-.35.31m.64-.53-.5-.59,1.28-1.1a.64.64,0,0,0,.06-.9l-.06-.07a.64.64,0,0,0-.48-.22.66.66,0,0,0-.42.15l-.37.32a.52.52,0,0,0-.52-.48h-.26l2-2.93,2.39,1.72v2.86a.17.17,0,0,0,0,.15l.9,3.91a.17.17,0,0,0,.12.14.2.2,0,0,0,.18-.05l.42-.39a2.47,2.47,0,0,1,.13.6,2.12,2.12,0,0,1-.59,1.64l-1.62-1.82a2.54,2.54,0,0,0,.76-1.67,1.58,1.58,0,0,0-.44-1.17,1.93,1.93,0,0,0-1.42-.6h0a2.73,2.73,0,0,0-1.5.5m-3.33-2.21a.16.16,0,0,1-.16-.16.16.16,0,0,1,.16-.15h2.32a.16.16,0,0,1,.16.15.16.16,0,0,1-.16.16Zm0,.37h.51a.82.82,0,1,1-.63-1.35.83.83,0,0,1,.63.3h-.51a.53.53,0,1,0,0,1.05m-1.83-.53a1.71,1.71,0,0,1,3.33-.52h-.56a1.19,1.19,0,1,0,0,1.05h.56a1.71,1.71,0,0,1-3.33-.53m3.71.53H301l-.46.39a2.26,2.26,0,0,0,.15-.39m-2.19,3.47a.27.27,0,0,1-.38,0l-.06-.07a.27.27,0,0,1,0-.38l4.18-3.6a.24.24,0,0,1,.18-.07.3.3,0,0,1,.21.1l.06.07a.28.28,0,0,1,0,.38Zm1.82-1.08.41-.36.51.6a4.88,4.88,0,0,0-.37.45Zm2.47,4.65a3.07,3.07,0,0,1-1.84-1c-.45-.75-.69-1.95.72-3.37a3,3,0,0,1,2-1h0a1.63,1.63,0,0,1,1.16.49,1.23,1.23,0,0,1,.34.91,2.24,2.24,0,0,1-.64,1.41l-.31-.35a1.73,1.73,0,0,0,.58-1.08,1,1,0,0,0-.35-.72c-.5-.43-1.12-.37-1.85.18l0,0h0a6.37,6.37,0,0,0-.69.63,2,2,0,0,0-.34,2.79,2.27,2.27,0,0,0,1.18.66l.24.07a3.15,3.15,0,0,1,1.75,1.4l-.29.17a2.7,2.7,0,0,0-1.6-1.24M301.5,461l1.85,2.14-.32-.12-.24-.07a1.83,1.83,0,0,1-1-.55,1.27,1.27,0,0,1-.27-1.4m.52,4.06a2.5,2.5,0,0,0,.93.41,2.54,2.54,0,0,0,2-.47h0l.07-.05.05,0a.21.21,0,0,0,.07-.13.18.18,0,0,0,0-.13l-3.45-4a3.22,3.22,0,0,1,.33-.45l4,4.61a3.41,3.41,0,0,1-3.86.85,12.18,12.18,0,0,1-2.38-2.17l2.6,1-.39.33a.18.18,0,0,0,0,.28m.3,3.86a3,3,0,0,0-.85-2.06,1.88,1.88,0,0,0-.66-.41l.2-.19a3.47,3.47,0,0,0,2.31.93,3.71,3.71,0,0,0,1-.15,3,3,0,0,1-.75,1.27,2.44,2.44,0,0,1-1.27.61m-4.76,3.62a2.77,2.77,0,0,1-2.92-.24h0a.32.32,0,0,1-.14-.16l0-.05c.05-.07.17,0,.21,0a3,3,0,0,0,3,.12,2.74,2.74,0,0,0,.84-.62l.23.08a3,3,0,0,1-1.22.87m3.68-1.85a2.36,2.36,0,0,1-3.39,0,1.11,1.11,0,0,1-.27-.83.91.91,0,0,1,.37-.6.8.8,0,0,1,.61-.12,1,1,0,0,1,.67.51,1.43,1.43,0,0,1,0,1.13l-.2,0a1.18,1.18,0,0,0-.05-1,.79.79,0,0,0-.57-.37.51.51,0,0,0-.44.16.8.8,0,0,0,0,1,2.06,2.06,0,0,0,1.5.63h0a2,2,0,0,0,1.45-.64,3,3,0,0,0,.35-.46c.11,0,.23,0,.35,0a2.29,2.29,0,0,1-.45.6m-2.51-.07a1.49,1.49,0,0,1-.45-.34.43.43,0,0,1,0-.53.11.11,0,0,1,.1,0h0a.46.46,0,0,1,.3.19.85.85,0,0,1,0,.72m5.37-1.86a3.27,3.27,0,0,1-2.27,1,3.13,3.13,0,0,1-2.27-.91,1.32,1.32,0,0,1-.08-1.78,1.1,1.1,0,0,1,.74-.32.14.14,0,0,0,.11.09.21.21,0,0,0,.17-.05h0a1.36,1.36,0,0,1,.7.37A2.56,2.56,0,0,1,302,469h-.31a2.15,2.15,0,0,0-.55-1.58,1.29,1.29,0,0,0-.83-.38h0a.73.73,0,0,0-.54.23,1,1,0,0,0,.06,1.37,2.52,2.52,0,0,0,1.77.72h.2a3,3,0,0,0,2.1-.76,3.34,3.34,0,0,0,.91-1.66l.37-.15a3.48,3.48,0,0,1-1,2m-2.82.18a2,2,0,0,1-1.23-.57h0c-.05,0-.46-.48-.08-.86a.4.4,0,0,1,.29-.12h0a.87.87,0,0,1,.56.26,1.78,1.78,0,0,1,.46,1.3m4.73-3.07c-2,1.27-3.49,1.28-4.88,0a.17.17,0,0,0-.25,0l-.44.43-1-2.69A13.53,13.53,0,0,0,302,466a2.89,2.89,0,0,0,1.39.34,2.94,2.94,0,0,0,.65-.07,4.49,4.49,0,0,0,2.24-1.16l.52.6a1.12,1.12,0,0,0-.8.18m2-6.27a.17.17,0,0,0,0,.24c1.07,1.55.88,3-.64,4.84a1.12,1.12,0,0,0-.29.7l-.45-.52c1.93-1.84,1.56-3.59,1.4-4.1a9.66,9.66,0,0,0-1.93-2.82l2.42,1.28Zm.68-7.92a.77.77,0,0,1-.44-.33.61.61,0,0,1-.06-.44.18.18,0,0,0-.1-.21l0,0a.19.19,0,0,0-.22.13,1.11,1.11,0,0,1-1.35.74,1.09,1.09,0,0,1-.67-.51,1,1,0,0,1-.1-.77.19.19,0,0,0-.13-.22h0a.19.19,0,0,0-.23.12A1.1,1.1,0,0,1,304,451a1,1,0,0,1-.67-.5,1,1,0,0,1-.1-.77.19.19,0,0,0-.13-.23h0a.19.19,0,0,0-.23.13.73.73,0,0,1-.86.44.71.71,0,0,1-.43-.33,1.65,1.65,0,0,1-.06-1.17l8.57,2.18c-.39,1.26-1.36,1-1.4,1" transform="translate(-267.37 -431.22)"/><path class="cls-1" d="M271.42,456.68a.63.63,0,0,0,0-.23V454.3a.37.37,0,0,0-.07-.25.26.26,0,0,0-.19-.08.41.41,0,0,0-.28.13l-.54.55c-.08.08-.11.11-.12.17a.21.21,0,0,0,.06.22.22.22,0,0,0,.23.07.44.44,0,0,0,.17-.12l.23-.23v1.69a.63.63,0,0,0,0,.23.25.25,0,0,0,.23.12.25.25,0,0,0,.22-.12" transform="translate(-267.37 -431.22)"/><path class="cls-1" d="M272.71,456.58a.25.25,0,0,0,.25.23.16.16,0,0,0,.12,0,.35.35,0,0,0,.13-.17l.5-1a1.65,1.65,0,0,0,.24-.74.87.87,0,1,0-1.74,0,.74.74,0,0,0,.94.8l-.37.74a.52.52,0,0,0-.07.2m.37-1.33a.41.41,0,1,1,.36-.41.37.37,0,0,1-.36.41" transform="translate(-267.37 -431.22)"/><path class="cls-1" d="M306.88,456.25a.42.42,0,0,0-.14.27.25.25,0,0,0,.07.18.32.32,0,0,0,.27.08h1.05a.48.48,0,0,0,.21,0,.22.22,0,0,0,.11-.2.21.21,0,0,0-.11-.2.48.48,0,0,0-.21,0h-.73l.67-.8a1,1,0,0,0,.36-.76.75.75,0,0,0-.85-.76.86.86,0,0,0-.59.2.64.64,0,0,0-.23.45.28.28,0,0,0,.06.18.22.22,0,0,0,.18.08.2.2,0,0,0,.14-.05.26.26,0,0,0,.1-.14.34.34,0,0,1,.35-.26.3.3,0,0,1,.33.32.65.65,0,0,1-.19.43Z" transform="translate(-267.37 -431.22)"/><path class="cls-1" d="M309.87,454.91a.65.65,0,0,0-.42.13v-.58h.82c.11,0,.16,0,.2,0a.2.2,0,0,0,.11-.2.22.22,0,0,0-.11-.2.43.43,0,0,0-.2,0h-1a.29.29,0,0,0-.23.07.32.32,0,0,0-.07.24v1a.28.28,0,0,0,.07.21.23.23,0,0,0,.17.07.26.26,0,0,0,.14,0,.28.28,0,0,0,.1-.09.36.36,0,0,1,.3-.12c.26,0,.34.18.34.5a.53.53,0,0,1-.1.4.3.3,0,0,1-.25.09.28.28,0,0,1-.31-.21.26.26,0,0,0-.1-.15.17.17,0,0,0-.15,0,.23.23,0,0,0-.18.07.26.26,0,0,0-.07.19.57.57,0,0,0,.21.42.9.9,0,0,0,.6.19.79.79,0,0,0,.61-.23.87.87,0,0,0,.25-.72,1,1,0,0,0-.25-.74.72.72,0,0,0-.51-.18" transform="translate(-267.37 -431.22)"/><path class="cls-1" d="M293.61,454.78a.19.19,0,0,0-.25.06,1.38,1.38,0,0,1-.54.51.17.17,0,0,0-.09.23.18.18,0,0,0,.17.11H293a1.68,1.68,0,0,0,.7-.65.19.19,0,0,0-.06-.25" transform="translate(-267.37 -431.22)"/><path class="cls-1" d="M287.59,455.68h.08a.19.19,0,0,0,.16-.1.18.18,0,0,0-.09-.24,1.46,1.46,0,0,1-.54-.51.18.18,0,0,0-.24-.06.18.18,0,0,0-.07.25,1.68,1.68,0,0,0,.7.65" transform="translate(-267.37 -431.22)"/></g></g></svg>